<svg xmlns="http://www.w3.org/2000/svg" width="1360" height="119" viewBox="0 0 1360 119" fill="none">
<path d="M1287.16 0L1226.07 89.7615C1218.03 101.563 1204.98 112.944 1189.23 114.153V116.912H1257.17C1275.21 116.912 1288.37 104.987 1297.27 91.8539L1359.99 0H1287.17H1287.16Z" fill="#c2c2c2"/>
<path d="M162.141 116.912V9.86152H192.895V116.912H162.141ZM871.452 116.912L797.551 53.345V116.912H771.581V9.86152H793.643L866.559 72.4296V9.86152H892.53V116.912H871.452ZM1032.17 44.3963C1018.28 37.4459 1002.62 31.8204 981.869 31.8204C957.086 31.8204 938.607 44.838 938.607 62.938C938.607 81.4796 957.419 94.6202 981.645 94.6202C1001.65 94.6202 1017.5 89.4291 1033.15 80.2633V106.754C1019.35 113.705 1000.99 118.889 980.342 118.889C938.18 118.889 905.023 97.0456 905.023 62.938C905.023 29.3878 938.824 7.86328 980.226 7.86328C999.791 7.86328 1017.5 11.6136 1032.17 17.6952V44.3963ZM364.054 116.912V9.86152H466.857V32.8123H394.809V59.4121H465.236V82.3701H394.809V116.919L364.054 116.912ZM1050.76 116.912V9.86152H1157.47V32.8123H1081.51V51.3612H1156.28V74.312H1081.51V93.9614H1157.15V116.912H1050.76ZM573.684 76.7374L616.172 116.919H583.354C576.073 116.919 571.296 114.603 567.488 110.838L538.579 82.3629C537.897 81.7546 537.002 81.4399 536.09 81.4868H516.416V116.912H485.662V9.86152H552.281C586.836 9.86152 601.399 25.6447 601.399 43.0786C601.399 63.3868 583.571 73.0812 573.684 76.7374ZM549.133 59.079C561.293 59.079 567.163 52.7947 567.163 45.7285C567.163 38.6622 561.951 32.8123 549.133 32.8123H516.416V59.079H549.133ZM309.711 76.7446L352.198 116.912H319.388C312.107 116.912 307.322 114.595 303.522 110.838L274.613 82.3629C273.929 81.7528 273.032 81.4379 272.116 81.4868H252.45V116.912H221.688V9.86152H288.308C322.862 9.86152 337.433 25.6447 337.433 43.0786C337.433 63.3868 319.605 73.0884 309.711 76.7446ZM285.159 59.079C297.334 59.079 303.204 52.7947 303.204 45.7285C303.204 38.6622 297.985 32.8123 285.159 32.8123H252.45V59.079H285.159ZM113.993 116.912L100.523 93.4039H41.6263L29.3432 116.912H0L58.6865 9.97012H85.424L151.935 116.912H113.993ZM53.3592 71.1047H87.704L69.8766 38.4378L53.3592 71.1047ZM728.109 116.912L714.957 93.4039H657.595L645.747 116.912H617.156L674.315 9.97012H700.286L764.951 116.912H728.109ZM669.104 71.1047H702.573L685.187 38.4378L669.104 71.1047Z" fill="#878787"/>
</svg>