<svg width="66" height="66" viewBox="0 0 66 66" fill="none" xmlns="http://www.w3.org/2000/svg">
<path fill-rule="evenodd" clip-rule="evenodd" d="M66 33C66 14.7763 51.2237 0 33 0C14.7763 0 0 14.7763 0 33C0 49.4705 12.0656 63.1228 27.8438 65.6008V42.542H19.4626V33H27.8438V25.7297C27.8438 17.4605 32.7717 12.8892 40.3086 12.8892C43.9195 12.8892 47.6968 13.5344 47.6968 13.5344V21.6563H43.5335C39.4365 21.6563 38.1548 24.199 38.1548 26.8125V33H47.3064L45.845 42.542H38.1563V65.6037C53.9344 63.1272 66 49.475 66 33V33Z" fill="white"/>
</svg>
