<svg width="1473" height="279" viewBox="0 0 1473 279" fill="none" xmlns="http://www.w3.org/2000/svg">
<path d="M47.3291 233V30.5H75.0791V233H47.3291ZM105.591 233V88.5H132.341V102.75C137.174 98.25 142.507 94.4167 148.341 91.25C154.174 88.0833 160.591 86.5 167.591 86.5C173.424 86.5 177.841 88 180.841 91C184.007 94 186.174 97.75 187.341 102.25C188.674 106.75 189.341 111.333 189.341 116V233H162.591V123.75C162.591 118.583 161.841 114.583 160.341 111.75C158.841 108.917 155.757 107.5 151.091 107.5C148.091 107.5 144.924 108.417 141.591 110.25C138.424 111.917 135.341 114 132.341 116.5V233H105.591ZM248.954 235C237.121 235 227.621 231.333 220.454 224C213.287 216.5 209.204 206.667 208.204 194.5L230.454 187.75C231.787 196.917 234.037 203.833 237.204 208.5C240.371 213 245.037 215.25 251.204 215.25C256.037 215.25 259.704 213.917 262.204 211.25C264.704 208.417 265.954 204.667 265.954 200C265.954 195.833 265.037 192.083 263.204 188.75C261.371 185.417 258.371 182 254.204 178.5L229.454 157.25C224.454 152.917 220.204 148.083 216.704 142.75C213.371 137.417 211.704 130.5 211.704 122C211.704 114.333 213.204 107.917 216.204 102.75C219.371 97.4167 223.704 93.4167 229.204 90.75C234.871 87.9167 241.454 86.5 248.954 86.5C260.954 86.5 270.121 90.25 276.454 97.75C282.787 105.083 286.454 114 287.454 124.5L268.454 131.25C267.787 126.25 266.787 121.917 265.454 118.25C264.121 114.417 262.204 111.5 259.704 109.5C257.204 107.333 253.954 106.25 249.954 106.25C245.621 106.25 242.121 107.75 239.454 110.75C236.954 113.583 235.704 117 235.704 121C235.704 123.5 236.204 126 237.204 128.5C238.371 130.833 240.287 133.167 242.954 135.5L268.454 159C271.954 162.167 275.204 165.583 278.204 169.25C281.371 172.917 283.954 177.083 285.954 181.75C287.954 186.417 288.954 191.833 288.954 198C288.954 206.167 287.287 213 283.954 218.5C280.621 224 275.954 228.167 269.954 231C263.954 233.667 256.954 235 248.954 235ZM347.46 235C339.96 235 333.877 233.583 329.21 230.75C324.71 227.917 321.377 223.917 319.21 218.75C317.21 213.583 316.21 207.5 316.21 200.5V106.25H300.96V88.5H316.21V46.25H342.96V88.5H366.21V106.25H342.96V198.75C342.96 204.417 343.877 208.5 345.71 211C347.543 213.333 351.043 214.5 356.21 214.5C357.543 214.5 359.043 214.417 360.71 214.25C362.543 214.083 364.293 213.917 365.96 213.75V233.5C362.627 234 359.543 234.333 356.71 234.5C353.877 234.833 350.793 235 347.46 235ZM386.614 233V88.5H413.364V109C418.698 100.167 424.031 94.25 429.364 91.25C434.698 88.25 440.031 86.75 445.364 86.75C446.031 86.75 446.614 86.75 447.114 86.75C447.781 86.75 448.614 86.8333 449.614 87V116.5C447.614 115.667 445.281 115 442.614 114.5C440.114 113.833 437.531 113.5 434.864 113.5C430.698 113.5 426.864 114.5 423.364 116.5C420.031 118.333 416.698 122 413.364 127.5V233H386.614ZM486.937 235C481.27 235 476.853 233.5 473.687 230.5C470.52 227.5 468.27 223.75 466.937 219.25C465.77 214.75 465.187 210.167 465.187 205.5V88.5H491.937V197.5C491.937 202.667 492.687 206.75 494.187 209.75C495.687 212.583 498.77 214 503.437 214C506.437 214 509.52 213.167 512.687 211.5C516.02 209.667 519.187 207.5 522.187 205V88.5H548.937V233H522.187V218.75C517.52 223.25 512.187 227.083 506.187 230.25C500.353 233.417 493.937 235 486.937 235ZM615.794 235C603.961 235 594.961 232.667 588.794 228C582.794 223.167 578.711 216.417 576.544 207.75C574.544 199.083 573.544 189 573.544 177.5V144.25C573.544 132.083 574.627 121.75 576.794 113.25C578.961 104.583 583.044 98 589.044 93.5C595.211 88.8333 604.127 86.5 615.794 86.5C626.294 86.5 634.377 88.25 640.044 91.75C645.877 95.0833 649.877 100.167 652.044 107C654.211 113.667 655.294 122 655.294 132V140.5H631.044V131.75C631.044 125.417 630.627 120.417 629.794 116.75C628.961 113.083 627.461 110.417 625.294 108.75C623.127 107.083 620.044 106.25 616.044 106.25C611.711 106.25 608.377 107.25 606.044 109.25C603.711 111.25 602.127 114.667 601.294 119.5C600.627 124.167 600.294 130.583 600.294 138.75V184.25C600.294 196.583 601.461 204.833 603.794 209C606.127 213.167 610.294 215.25 616.294 215.25C620.794 215.25 624.044 214.25 626.044 212.25C628.211 210.083 629.544 207.083 630.044 203.25C630.711 199.417 631.044 195.083 631.044 190.25V178.5H655.294V188.5C655.294 198.167 654.127 206.5 651.794 213.5C649.627 220.5 645.627 225.833 639.794 229.5C634.127 233.167 626.127 235 615.794 235ZM717.577 235C710.077 235 703.994 233.583 699.327 230.75C694.827 227.917 691.494 223.917 689.327 218.75C687.327 213.583 686.327 207.5 686.327 200.5V106.25H671.077V88.5H686.327V46.25H713.077V88.5H736.327V106.25H713.077V198.75C713.077 204.417 713.994 208.5 715.827 211C717.66 213.333 721.16 214.5 726.327 214.5C727.66 214.5 729.16 214.417 730.827 214.25C732.66 214.083 734.41 213.917 736.077 213.75V233.5C732.744 234 729.66 234.333 726.827 234.5C723.994 234.833 720.91 235 717.577 235ZM757.731 233V88.5H784.481V233H757.731ZM757.731 67V39H784.481V67H757.731ZM813.11 233V88.5H839.86V102.75C844.694 98.25 850.027 94.4167 855.86 91.25C861.694 88.0833 868.11 86.5 875.11 86.5C880.944 86.5 885.36 88 888.36 91C891.527 94 893.694 97.75 894.86 102.25C896.194 106.75 896.86 111.333 896.86 116V233H870.11V123.75C870.11 118.583 869.36 114.583 867.86 111.75C866.36 108.917 863.277 107.5 858.61 107.5C855.61 107.5 852.444 108.417 849.11 110.25C845.944 111.917 842.86 114 839.86 116.5V233H813.11ZM961.224 278.25C952.39 278.25 944.39 277.25 937.224 275.25C930.224 273.417 924.64 270.5 920.474 266.5C916.474 262.5 914.474 257.25 914.474 250.75C914.474 245.75 915.64 241.333 917.974 237.5C920.307 233.833 923.307 230.667 926.974 228C930.64 225.333 934.474 223.25 938.474 221.75L950.974 223.5C948.807 225.5 946.724 227.583 944.724 229.75C942.724 231.75 941.057 233.833 939.724 236C938.39 238.333 937.724 240.833 937.724 243.5C937.724 247.833 939.557 251.083 943.224 253.25C947.057 255.417 953.807 256.5 963.474 256.5C972.974 256.5 979.974 255.333 984.474 253C989.14 250.833 991.474 247.333 991.474 242.5C991.474 239.5 990.89 237 989.724 235C988.557 233.167 986.557 231.667 983.724 230.5C980.89 229.333 976.807 228.5 971.474 228L939.974 224C933.474 223.167 928.64 221.083 925.474 217.75C922.307 214.417 920.724 210.75 920.724 206.75C920.724 200.75 922.39 195.667 925.724 191.5C929.224 187.333 933.89 182.667 939.724 177.5L948.724 184.5C947.724 185.833 946.474 187.75 944.974 190.25C943.474 192.583 942.724 194.917 942.724 197.25C942.724 199.083 943.64 200.583 945.474 201.75C947.474 202.917 950.557 203.667 954.724 204L978.974 206.25C990.307 207.25 998.724 210.667 1004.22 216.5C1009.72 222.333 1012.47 230.667 1012.47 241.5C1012.47 249.5 1010.56 256.25 1006.72 261.75C1003.06 267.25 997.474 271.333 989.974 274C982.474 276.833 972.89 278.25 961.224 278.25ZM962.224 188.5C952.39 188.5 944.39 186.333 938.224 182C932.057 177.667 927.474 171.667 924.474 164C921.64 156.333 920.224 147.583 920.224 137.75C920.224 126.583 921.807 117.25 924.974 109.75C928.14 102.083 932.807 96.3333 938.974 92.5C945.307 88.5 953.057 86.5 962.224 86.5C971.724 86.5 979.474 88.9167 985.474 93.75C991.474 98.4167 995.89 104.667 998.724 112.5C1001.56 120.333 1002.97 129 1002.97 138.5C1002.97 148.333 1001.64 157.083 998.974 164.75C996.474 172.25 992.224 178.083 986.224 182.25C980.39 186.417 972.39 188.5 962.224 188.5ZM962.224 169.25C965.89 169.25 968.807 168.583 970.974 167.25C973.14 165.75 974.724 163.667 975.724 161C976.89 158.333 977.64 155.083 977.974 151.25C978.474 147.25 978.724 142.75 978.724 137.75C978.724 132.75 978.557 128.25 978.224 124.25C977.89 120.25 977.14 116.917 975.974 114.25C974.807 111.417 973.14 109.25 970.974 107.75C968.807 106.25 965.974 105.5 962.474 105.5C958.807 105.5 955.807 106.25 953.474 107.75C951.307 109.083 949.557 111.167 948.224 114C947.057 116.667 946.224 120 945.724 124C945.39 128 945.224 132.583 945.224 137.75C945.224 142.25 945.39 146.417 945.724 150.25C946.224 154.083 947.057 157.417 948.224 160.25C949.39 163.083 951.057 165.333 953.224 167C955.557 168.5 958.557 169.25 962.224 169.25ZM997.974 112.75L991.724 102.75C993.057 100.417 996.057 97.5 1000.72 94C1005.39 90.5 1010.39 87.5833 1015.72 85.25L1022.72 102.75C1020.39 103.25 1017.22 104.167 1013.22 105.5C1009.39 106.833 1005.89 108.25 1002.72 109.75C999.557 111.083 997.974 112.083 997.974 112.75ZM1032.08 233V203.25H1058.83V233H1032.08ZM1118.24 235C1106.4 235 1097.4 232.667 1091.24 228C1085.24 223.167 1081.15 216.417 1078.99 207.75C1076.99 199.083 1075.99 189 1075.99 177.5V144.25C1075.99 132.083 1077.07 121.75 1079.24 113.25C1081.4 104.583 1085.49 98 1091.49 93.5C1097.65 88.8333 1106.57 86.5 1118.24 86.5C1128.74 86.5 1136.82 88.25 1142.49 91.75C1148.32 95.0833 1152.32 100.167 1154.49 107C1156.65 113.667 1157.74 122 1157.74 132V140.5H1133.49V131.75C1133.49 125.417 1133.07 120.417 1132.24 116.75C1131.4 113.083 1129.9 110.417 1127.74 108.75C1125.57 107.083 1122.49 106.25 1118.49 106.25C1114.15 106.25 1110.82 107.25 1108.49 109.25C1106.15 111.25 1104.57 114.667 1103.74 119.5C1103.07 124.167 1102.74 130.583 1102.74 138.75V184.25C1102.74 196.583 1103.9 204.833 1106.24 209C1108.57 213.167 1112.74 215.25 1118.74 215.25C1123.24 215.25 1126.49 214.25 1128.49 212.25C1130.65 210.083 1131.99 207.083 1132.49 203.25C1133.15 199.417 1133.49 195.083 1133.49 190.25V178.5H1157.74V188.5C1157.74 198.167 1156.57 206.5 1154.24 213.5C1152.07 220.5 1148.07 225.833 1142.24 229.5C1136.57 233.167 1128.57 235 1118.24 235ZM1220.05 235C1209.38 235 1200.96 232.833 1194.8 228.5C1188.63 224.167 1184.21 218 1181.55 210C1179.05 202 1177.8 192.583 1177.8 181.75V139.75C1177.8 128.917 1179.05 119.5 1181.55 111.5C1184.21 103.5 1188.63 97.3333 1194.8 93C1200.96 88.6667 1209.38 86.5 1220.05 86.5C1230.71 86.5 1239.05 88.6667 1245.05 93C1251.21 97.3333 1255.55 103.5 1258.05 111.5C1260.71 119.5 1262.05 128.917 1262.05 139.75V181.75C1262.05 192.583 1260.71 202 1258.05 210C1255.55 218 1251.21 224.167 1245.05 228.5C1239.05 232.833 1230.71 235 1220.05 235ZM1220.05 215.25C1225.21 215.25 1228.8 213.75 1230.8 210.75C1232.96 207.75 1234.21 203.833 1234.55 199C1235.05 194 1235.3 188.833 1235.3 183.5V138.25C1235.3 132.75 1235.05 127.583 1234.55 122.75C1234.21 117.917 1232.96 114 1230.8 111C1228.8 107.833 1225.21 106.25 1220.05 106.25C1214.88 106.25 1211.21 107.833 1209.05 111C1206.88 114 1205.55 117.917 1205.05 122.75C1204.71 127.583 1204.55 132.75 1204.55 138.25V183.5C1204.55 188.833 1204.71 194 1205.05 199C1205.55 203.833 1206.88 207.75 1209.05 210.75C1211.21 213.75 1214.88 215.25 1220.05 215.25ZM1286.5 233V88.5H1311.25V102.25C1316.08 96.75 1321.42 92.6667 1327.25 90C1333.08 87.3333 1339.08 86 1345.25 86C1350.58 86 1355.33 87.3333 1359.5 90C1363.83 92.6667 1366.92 97.4167 1368.75 104.25C1373.92 97.9167 1379.5 93.3333 1385.5 90.5C1391.67 87.5 1398.08 86 1404.75 86C1409.42 86 1413.67 87.1667 1417.5 89.5C1421.33 91.6667 1424.42 95.25 1426.75 100.25C1429.08 105.083 1430.25 111.5 1430.25 119.5V233H1405.75V121.25C1405.75 114.25 1404.58 109.583 1402.25 107.25C1400.08 104.75 1397.08 103.5 1393.25 103.5C1389.58 103.5 1385.75 104.583 1381.75 106.75C1377.75 108.75 1374.08 111.583 1370.75 115.25C1370.75 115.917 1370.75 116.583 1370.75 117.25C1370.75 117.917 1370.75 118.667 1370.75 119.5V233H1346.25V121.25C1346.25 114.25 1345.08 109.583 1342.75 107.25C1340.58 104.75 1337.58 103.5 1333.75 103.5C1330.08 103.5 1326.25 104.583 1322.25 106.75C1318.42 108.75 1314.75 111.583 1311.25 115.25V233H1286.5Z" fill="#4A4A4A"/>
</svg>
