<svg width="66" height="66" viewBox="0 0 66 66" fill="none" xmlns="http://www.w3.org/2000/svg">
<g clip-path="url(#clip0_826_43033)">
<path d="M46.7495 5.49951C50.3931 5.51039 53.8844 6.96264 56.4609 9.5391C59.0374 12.1156 60.4896 15.6069 60.5005 19.2505V46.7495C60.4896 50.3931 59.0374 53.8844 56.4609 56.4609C53.8844 59.0374 50.3931 60.4896 46.7495 60.5005H19.2505C15.6069 60.4896 12.1156 59.0374 9.5391 56.4609C6.96264 53.8844 5.51039 50.3931 5.49951 46.7495V19.2505C5.51039 15.6069 6.96264 12.1156 9.5391 9.5391C12.1156 6.96264 15.6069 5.51039 19.2505 5.49951H46.7495M46.7495 0H19.2505C8.6625 0 0 8.6625 0 19.2505V46.7495C0 57.3375 8.6625 66 19.2505 66H46.7495C57.3375 66 66 57.3375 66 46.7495V19.2505C66 8.6625 57.3375 0 46.7495 0V0Z" fill="white"/>
<path d="M50.8745 19.25C50.0587 19.25 49.2611 19.0081 48.5828 18.5548C47.9044 18.1016 47.3757 17.4573 47.0635 16.7036C46.7513 15.9498 46.6696 15.1204 46.8288 14.3203C46.9879 13.5201 47.3808 12.7851 47.9577 12.2082C48.5346 11.6313 49.2696 11.2384 50.0698 11.0793C50.8699 10.9201 51.6993 11.0018 52.4531 11.314C53.2068 11.6262 53.8511 12.1549 54.3043 12.8333C54.7576 13.5116 54.9995 14.3092 54.9995 15.125C55.0007 15.667 54.8948 16.204 54.6879 16.7049C54.481 17.2059 54.1772 17.6611 53.7939 18.0444C53.4107 18.4277 52.9555 18.7315 52.4545 18.9384C51.9535 19.1453 51.4165 19.2512 50.8745 19.25V19.25ZM33 21.999C35.1757 21.999 37.3025 22.6442 39.1116 23.8529C40.9206 25.0617 42.3305 26.7797 43.1631 28.7898C43.9957 30.7999 44.2136 33.0117 43.7891 35.1456C43.3647 37.2795 42.317 39.2396 40.7785 40.778C39.2401 42.3165 37.28 43.3642 35.1461 43.7886C33.0122 44.2131 30.8004 43.9952 28.7903 43.1626C26.7802 42.33 25.0622 40.9201 23.8534 39.1111C22.6447 37.302 21.9995 35.1752 21.9995 32.9995C22.0026 30.083 23.1626 27.2867 25.2249 25.2244C27.2872 23.1621 30.0835 22.0021 33 21.999M33 16.4995C29.7366 16.4995 26.5465 17.4672 23.8331 19.2803C21.1197 21.0933 19.0048 23.6703 17.756 26.6852C16.5071 29.7002 16.1804 33.0178 16.8171 36.2185C17.4537 39.4192 19.0252 42.3592 21.3327 44.6668C23.6403 46.9743 26.5803 48.5458 29.781 49.1825C32.9817 49.8191 36.2993 49.4924 39.3143 48.2435C42.3293 46.9947 44.9062 44.8798 46.7193 42.1664C48.5323 39.453 49.5 36.2629 49.5 32.9995C49.5 28.6234 47.7616 24.4266 44.6673 21.3322C41.5729 18.2379 37.3761 16.4995 33 16.4995V16.4995Z" fill="white"/>
</g>
<defs>
<clipPath id="clip0_826_43033">
<rect width="66" height="66" fill="white"/>
</clipPath>
</defs>
</svg>
