<svg width="66" height="66" viewBox="0 0 66 66" fill="none" xmlns="http://www.w3.org/2000/svg">
<g clip-path="url(#clip0_8_2)">
<path d="M60.7213 0H5.63944C2.62968 0 0 2.16562 0 5.14004V60.3442C0 63.3349 2.62968 66 5.63944 66H60.705C63.7314 66 66 63.3173 66 60.3442V5.14004C66.0176 2.16562 63.7314 0 60.7213 0ZM20.4585 55.0141H11.0034V25.6162H20.4585V55.0141ZM16.058 21.1465H15.9903C12.9642 21.1465 11.0049 18.894 11.0049 16.0742C11.0049 13.2029 13.0158 11.0034 16.1096 11.0034C19.2033 11.0034 21.0964 13.1867 21.1642 16.0742C21.1627 18.894 19.2033 21.1465 16.058 21.1465ZM55.0141 55.0141H45.5589V38.94C45.5589 35.089 44.183 32.4578 40.7623 32.4578C38.1488 32.4578 36.6019 34.2257 35.9139 35.9479C35.6561 36.5666 35.5869 37.4093 35.5869 38.2696V55.0141H26.1318V25.6162H35.5869V29.7073C36.9629 27.7479 39.1123 24.9282 44.114 24.9282C50.3206 24.9282 55.0158 29.0193 55.0158 37.8395L55.0141 55.0141Z" fill="white"/>
</g>
<defs>
<clipPath id="clip0_8_2">
<rect width="66" height="66" fill="white"/>
</clipPath>
</defs>
</svg>
