<svg width="66" height="68" viewBox="0 0 66 68" fill="none" xmlns="http://www.w3.org/2000/svg">
<path d="M33.0073 0C14.7796 0 0 14.7796 0 33.0073C0 46.5199 8.13397 58.1315 19.7602 63.2443C19.6718 60.9457 19.7455 58.1755 20.3349 55.6706C20.9685 52.9888 24.5787 37.6785 24.5787 37.6785C24.5787 37.6785 23.5177 35.5713 23.5177 32.4621C23.5177 27.57 26.3469 23.9156 29.8834 23.9156C32.8895 23.9156 34.3336 26.1701 34.3336 28.8667C34.3336 31.8875 32.4032 36.3965 31.416 40.5814C30.5907 44.0884 33.1694 46.9322 36.6323 46.9322C42.8801 46.9322 47.0945 38.9015 47.0945 29.3825C47.0945 22.1474 42.217 16.7394 33.361 16.7394C23.3556 16.7394 17.1078 24.2103 17.1078 32.5506C17.1078 35.424 17.9625 37.4575 19.2887 39.0194C19.8928 39.7415 19.9812 40.0362 19.7602 40.8613C19.5981 41.4655 19.2445 42.9243 19.0824 43.5137C18.8613 44.3538 18.1835 44.6486 17.432 44.3388C12.8198 42.4528 10.6685 37.4132 10.6685 31.7254C10.6685 22.3536 18.5814 11.1105 34.2599 11.1105C46.8587 11.1105 55.1549 20.2317 55.1549 30.0161C55.1549 42.9685 47.949 52.635 37.3396 52.635C33.7736 52.635 30.4287 50.7047 29.2793 48.5236C29.2793 48.5236 27.3637 56.1273 26.9511 57.6008C26.2585 60.1502 24.8882 62.6846 23.6356 64.6738C26.6739 65.5701 29.8249 66.0268 32.9927 66.0295C51.2204 66.0295 66 51.2499 66 33.0221C66 14.7944 51.2349 0 33.0073 0Z" fill="white"/>
</svg>
