<svg width="959" height="262" viewBox="0 0 959 262" fill="none" xmlns="http://www.w3.org/2000/svg">
<g clip-path="url(#clip0_3778_48218)">
<mask id="mask0_3778_48218" style="mask-type:luminance" maskUnits="userSpaceOnUse" x="0" y="0" width="959" height="262">
<path d="M959 0H0V262H959V0Z" fill="white"/>
</mask>
<g mask="url(#mask0_3778_48218)">
<path d="M54.5938 215.255C68.3839 232.69 84.502 248.437 102.646 261.998C120.594 248.615 136.801 232.974 150.769 215.396L102.61 168.562L54.5938 215.271V215.255Z" fill="#808080"/>
<path d="M32.1763 181.744L102.637 114.045L173.241 181.923C184.969 161.073 193.873 138.27 199.346 113.885C199.595 112.729 199.79 111.574 200.039 110.438H5.28906C10.5492 135.534 19.6834 159.545 32.1585 181.744" fill="#808080"/>
<path d="M32.125 181.746C38.7002 193.459 46.1995 204.656 54.5695 215.25L102.586 168.541L150.745 215.374C159.062 204.888 166.579 193.726 173.189 181.924L102.586 114.047L32.125 181.746Z" fill="#808080"/>
<path d="M150.543 212.075L104.161 166.948L102.597 165.455L101.051 166.948L54.7939 211.968C47.4546 202.442 40.755 192.435 34.8906 182.18L102.597 117.164L170.428 182.375C164.511 192.737 157.829 202.708 150.543 212.093" fill="#1C1C1C"/>
<path d="M102.586 114.055L173.189 181.932C166.579 193.716 159.062 204.878 150.745 215.364L102.586 168.531L54.5695 215.257C46.1817 204.664 38.6824 193.467 32.125 181.754L102.586 114.072M102.586 120.187L37.6695 182.536C42.8586 191.512 48.6874 200.274 55.0493 208.628L99.5118 165.349L102.604 162.345L105.696 165.349L150.318 208.734C156.627 200.452 162.438 191.725 167.68 182.714L102.622 120.169L102.586 120.187Z" fill="#1C1C1C"/>
<path d="M204.437 38.2508C196.155 40.7569 187.377 42.1255 178.225 42.1255C146.006 42.1255 117.857 25.2051 102.681 -0.015625C87.4693 25.1873 59.3382 42.1255 27.1197 42.1255C18.0033 42.1255 9.20679 40.7569 0.943374 38.2686C-1.20689 62.8672 0.356938 87.1281 5.2439 110.483H199.994C205.094 86.1328 206.462 61.8719 204.437 38.2508Z" fill="#1C1C1C"/>
<mask id="mask1_3778_48218" style="mask-type:luminance" maskUnits="userSpaceOnUse" x="54" y="47" width="97" height="57">
<path d="M150.65 47.1094H54.6875V103.718H150.65V47.1094Z" fill="white"/>
</mask>
<g mask="url(#mask1_3778_48218)">
<mask id="mask2_3778_48218" style="mask-type:luminance" maskUnits="userSpaceOnUse" x="54" y="47" width="97" height="57">
<path d="M150.642 47.1172H54.6797V103.726H150.642V47.1172Z" fill="white"/>
</mask>
<g mask="url(#mask2_3778_48218)">
<path d="M150.644 68.0623V59.7798H145.579V53.95L140.284 52.4571H139.893V47.4982C139.893 47.4982 138.062 49.7022 129.675 49.7022C121.287 49.7022 117.057 47.125 110.731 47.125C104.404 47.125 102.787 50.5908 102.787 50.5908V52.5993H102.574V50.5908C102.574 50.5908 100.69 47.125 94.6305 47.125C88.5707 47.125 83.6482 49.7022 75.6869 49.7022C67.2991 49.7022 65.8419 47.516 65.8419 47.516V52.7237H65.5042L59.7643 53.9323V59.762H54.6641V68.0445H59.7643V81.428H54.6641V89.7282H59.7643V100.019C59.7643 100.019 68.2765 101.334 76.1489 101.334C85.4608 101.334 90.8276 100.001 96.8874 99.8769V102.49C96.8874 102.49 99.322 103.68 102.574 103.68C105.826 103.68 108.456 102.49 108.456 102.49V99.8769C114.498 100.001 119.865 101.334 129.23 101.334C137.067 101.334 145.597 100.019 145.597 100.019V89.7282H150.662V81.428H145.597V68.0445H150.662L150.644 68.0623Z" fill="white"/>
</g>
</g>
<path d="M140.711 51.8866V45.5414L139.183 47.1588C139.183 47.1766 137.281 49.0606 129.604 49.0606L119.208 47.6742L110.661 46.4834C105.969 46.4834 103.641 48.4029 102.593 49.5582C101.58 48.4029 99.2162 46.4834 94.5425 46.4834L86.0125 47.692L75.6166 49.0606C68.064 49.0606 66.4824 47.2477 66.4824 47.2477L64.9186 45.3281V47.7809L64.9008 52.1354L58.7344 53.4329V101.03L59.4808 101.137C59.5696 101.155 68.1529 102.47 76.0076 102.47C83.8623 102.47 92.9609 101.457 95.8575 101.119V103.27L96.3373 103.519C96.444 103.572 99.003 104.816 102.433 104.816C105.862 104.816 108.581 103.572 108.688 103.519L109.203 103.27V101.102C112.1 101.439 121.305 102.452 129.089 102.452C136.872 102.452 145.527 101.137 145.598 101.119L146.344 101.013V53.4684L140.693 51.8866H140.711ZM103.499 51.2823C103.57 51.1756 105.258 48.2608 110.678 48.2608L118.853 49.416L129.622 50.8379C134.847 50.8379 137.494 50.0203 138.969 49.3272V94.312C138.863 94.0988 136.748 95.6984 129.622 95.6984L119.226 94.312L110.678 93.1212C106.982 93.1212 104.796 94.312 103.499 95.3785V51.3V51.2823ZM66.6601 49.3983C68.0818 50.1092 70.623 50.8557 75.6344 50.8557L86.4035 49.4338L94.5603 48.2608C99.9448 48.2608 101.633 51.1401 101.74 51.2823V95.3785C100.425 94.2943 98.2388 93.1034 94.4892 93.1034L85.9592 94.2943L75.6344 95.6628C68.0818 95.6628 66.5002 93.8499 66.5002 93.8144C66.5002 93.8144 66.6601 52.3665 66.6779 49.3627M144.603 99.4841C142.435 99.8041 135.54 100.711 129.107 100.711C119.901 100.711 108.564 99.2709 108.457 99.2531L107.462 99.0931V102.132C106.591 102.452 104.69 103.057 102.468 103.057C100.247 103.057 98.4876 102.452 97.6524 102.168V99.1109L96.675 99.2709C96.5506 99.2709 85.1951 100.728 76.0431 100.728C69.5923 100.728 62.6973 99.8218 60.5292 99.5019V54.8903C61.3289 54.7303 63.7457 54.1971 64.9364 53.9661V94.3654C65.3629 95.3074 67.211 97.458 75.6699 97.458L86.3679 96.0716L94.5425 94.8808C100.016 94.8808 101.722 97.7779 101.793 97.9201L102.042 97.7601H103.303L103.535 97.9201C103.606 97.7779 105.294 94.8808 110.714 94.8808L118.888 96.0361L129.658 97.458C138.223 97.458 140.356 95.2185 140.569 94.9519L140.729 53.7706C141.848 54.0727 143.91 54.6415 144.621 54.8725V99.5197L144.603 99.4841Z" fill="#1C1C1C"/>
<path d="M79.18 57.3385C78.4869 57.3918 78.0426 57.765 77.8294 58.2272L74.986 64.5368C74.986 64.5368 74.8439 64.6434 74.7728 64.6434C74.6839 64.6434 74.5595 64.5368 74.5062 64.3413C74.4352 64.128 74.0797 63.2393 73.3511 61.4975L72.4271 59.4535C72.1072 58.6893 71.8406 58.1916 71.7518 58.0317C71.4319 57.4629 71.0232 57.4096 70.5611 57.3385C70.5078 57.2674 70.5078 57.1963 70.5078 57.1607C70.5078 57.0897 70.5078 57.0541 70.5434 56.9475H71.0054C71.5385 56.9475 71.9828 57.0008 72.3915 57.0008C72.8536 57.0008 73.6177 56.9297 74.1508 56.9297H74.4529C74.4529 56.9297 74.524 57.0719 74.524 57.1074C74.524 57.143 74.524 57.2674 74.4885 57.3029C74.1508 57.3563 73.3689 57.3207 73.3689 57.8184C73.3689 57.925 73.3689 58.1205 73.44 58.2449L75.3059 62.6705L76.8697 59.0092C77.0652 58.5826 77.083 58.2272 77.083 58.0317C77.083 57.6051 76.7809 57.4273 76.0168 57.3385C75.999 57.2852 75.9634 57.2141 75.9634 57.1607C75.9634 57.1074 75.999 57.0008 76.0168 56.9475H76.23C76.5676 56.9475 76.9231 57.0186 77.705 57.0186C77.8471 57.0186 78.3803 56.9652 78.6291 56.9652H79.18C79.2155 57.0541 79.251 57.0897 79.251 57.1607C79.251 57.2141 79.2155 57.3029 79.18 57.3563" fill="#1C1C1C"/>
<path d="M87.08 64.3846C84.8231 64.3846 83.5969 64.3313 83.277 64.3313C83.046 64.3313 82.4773 64.3313 82.2108 64.3313C81.9087 64.3313 81.1801 64.3846 80.3804 64.3846H79.9184C79.9184 64.3846 79.8828 64.278 79.8828 64.2069C79.8828 64.1536 79.8828 64.0647 79.8828 63.9936C80.5048 63.958 80.9313 63.8514 81.0379 63.7625C81.1623 63.6026 81.2512 63.3004 81.2867 62.625C81.2867 62.2873 81.2867 61.9141 81.2867 61.5053C81.2867 60.9365 81.2867 60.2256 81.2867 59.4258V58.235C81.2689 57.4174 80.8602 57.4174 80.0072 57.3107C80.0072 57.2396 79.9717 57.1863 79.9717 57.133C79.9717 57.0797 79.9894 56.9553 80.0427 56.9375H80.4515C80.7358 56.9375 81.4822 56.9553 82.8861 56.9553C84.1833 56.9553 85.4273 56.9553 85.7294 56.9553C85.8893 56.9553 86.4047 56.9908 86.4935 56.9908C86.6712 56.9908 86.7423 56.9908 86.7423 57.1508L86.849 58.8393C86.7423 58.9104 86.7246 58.9281 86.6357 58.9281C86.5646 58.9281 86.5113 58.9281 86.4758 58.9104C85.9604 58.0572 85.7294 57.8795 85.3384 57.5951C85.1963 57.5063 85.0008 57.4352 84.6809 57.4174C84.5743 57.4174 84.3255 57.3996 83.6858 57.3996C83.1704 57.3996 82.9038 57.4174 82.8328 57.4174C82.7617 57.4174 82.7617 57.4174 82.7261 57.7195C82.7261 57.8795 82.6906 58.235 82.6906 59.2125V60.1723H82.9572C83.277 60.1723 83.6147 60.1545 83.8102 60.1012C84.0945 60.0301 84.4144 59.8346 84.5743 59.568C84.6454 59.4791 84.7165 59.0703 84.752 58.9459C84.7875 58.9104 84.8764 58.8926 84.983 58.8926C85.0541 58.8926 85.1252 58.8926 85.1785 58.9459C85.1607 59.2481 85.1074 59.8168 85.1074 60.5455C85.1074 60.9188 85.143 61.7186 85.143 62.0207C85.0719 62.0741 85.0363 62.0741 84.9297 62.0741C84.8764 62.0741 84.7698 62.0741 84.7165 62.0741C84.6631 61.4342 84.5565 60.9899 84.0056 60.7944C83.7035 60.6699 83.4725 60.6344 83.1704 60.6344C83.0282 60.6344 82.8328 60.6344 82.6906 60.6699V62.625C82.6906 63.0872 82.7261 63.3538 82.7972 63.5137C82.8505 63.6381 83.0282 63.887 83.2415 63.9225C83.3481 63.9403 83.5436 63.9758 83.9345 63.9758H85.0186C85.2851 63.9758 85.6761 63.9403 85.8183 63.8692C86.0848 63.6914 86.7779 62.945 87.0089 62.2696C87.1155 62.2162 87.1688 62.2162 87.2399 62.2162C87.2932 62.2162 87.3643 62.234 87.4532 62.2696V64.2424C87.4532 64.4202 87.3288 64.4379 87.0622 64.4379" fill="#1C1C1C"/>
<path d="M96.0723 59.2737C96.0723 59.2737 95.9479 59.2559 95.8591 59.2559C95.6814 58.7938 95.4859 58.3672 95.3082 58.1539C95.0061 57.7629 94.704 57.5141 93.9221 57.4252C93.7444 57.4074 93.3356 57.4074 93.1935 57.4074V60.7133C93.1935 61.2287 93.1935 61.833 93.1935 62.9705C93.2112 63.8415 93.5844 63.8415 94.4907 63.9659C94.544 64.0547 94.5618 64.1258 94.5618 64.1792C94.5618 64.2502 94.5618 64.2858 94.5085 64.3747H94.1886C93.6733 64.3747 92.6248 64.3391 92.3049 64.3391C92.0739 64.3391 90.9366 64.3924 90.4034 64.3924C90.3501 64.3036 90.3501 64.3036 90.3501 64.1969C90.3501 64.1614 90.3501 64.0725 90.3857 64.0014C91.5941 63.9125 91.7007 63.6993 91.7363 63.3082C91.7718 63.0772 91.7718 62.0819 91.7718 61.0866V58.3672C91.7718 58.0117 91.7363 57.6563 91.7007 57.443C91.4697 57.443 90.7411 57.443 90.5456 57.5318C89.9414 57.7451 89.4971 58.2428 89.0351 59.167C88.9818 59.167 88.8929 59.167 88.8574 59.167C88.7863 59.167 88.7152 59.167 88.6797 59.1137V57.1941C88.6797 57.0342 88.6797 56.9809 88.8929 56.9809C89.0706 56.9809 89.355 56.9986 89.7104 56.9986C89.977 56.9986 91.0787 56.9986 92.4293 56.9986C94.2242 56.9986 95.557 56.9453 95.8946 56.9453C96.0723 56.9453 96.1967 56.9453 96.2678 57.0164C96.2856 57.052 96.2678 57.1764 96.2678 57.283V59.2026C96.2678 59.2026 96.1434 59.3092 96.0901 59.3092" fill="#1C1C1C"/>
<path d="M78.8366 70.9924C78.8366 70.9924 78.7122 70.9746 78.6056 70.9746C78.4456 70.5125 78.2501 70.0859 78.0547 69.8727C77.7703 69.4816 77.4505 69.2328 76.6863 69.1617C76.5086 69.1439 76.0821 69.1439 75.9577 69.1439V72.4498C75.94 72.9653 75.94 73.5696 75.9577 74.7071C75.9577 75.578 76.3664 75.578 77.255 75.7024C77.3083 75.7735 77.3083 75.8624 77.3083 75.8979C77.3083 75.969 77.3083 76.0045 77.2728 76.0934H76.9529C76.4198 76.0934 75.3713 76.0579 75.0692 76.0579C74.8382 76.0579 73.7008 76.1112 73.1499 76.1112C73.1322 76.0223 73.1144 76.0223 73.1144 75.9157C73.1144 75.8801 73.1144 75.7913 73.1322 75.7202C74.3228 75.6135 74.4472 75.418 74.5005 75.027C74.5005 74.7959 74.5005 73.8006 74.5005 72.8053V70.0859C74.5005 69.7305 74.5005 69.375 74.4472 69.1617C74.1984 69.1617 73.4698 69.1617 73.2566 69.2506C72.6524 69.4639 72.2436 69.9615 71.7816 70.8858C71.7105 70.8858 71.6216 70.8858 71.5683 70.8858C71.4973 70.8858 71.4439 70.8858 71.3906 70.8324V68.9129C71.3906 68.7529 71.4262 68.6996 71.6216 68.6996C71.8171 68.6996 72.0659 68.7174 72.4391 68.7174C72.7234 68.7174 73.8075 68.7174 75.1758 68.7174C76.9351 68.7174 78.2857 68.6641 78.6233 68.6641C78.801 68.6641 78.9254 68.6641 78.9965 68.7352C79.0143 68.7707 78.9965 68.8951 78.9965 69.0018V70.9213C78.9965 70.9213 78.8721 71.0279 78.8188 71.0279" fill="#1C1C1C"/>
<path d="M87.3513 76.0864C85.1122 76.0864 83.8504 76.0331 83.5661 76.0331C83.3351 76.0331 82.7664 76.0331 82.4821 76.0331C82.1977 76.0331 81.4514 76.0864 80.6695 76.0864H80.2252C80.2252 76.0864 80.1719 75.9797 80.1719 75.9086C80.1719 75.8553 80.1719 75.7665 80.2074 75.6954C80.8294 75.642 81.2559 75.5354 81.327 75.4465C81.4691 75.2866 81.5402 74.9844 81.5758 74.309C81.5758 73.9536 81.6113 73.5803 81.6113 73.1715C81.6113 72.6028 81.5935 71.9096 81.5935 71.092C81.5935 70.4877 81.5935 70.15 81.5935 69.9012C81.5758 69.1014 81.2026 69.1014 80.3496 68.977C80.314 68.9059 80.2963 68.8348 80.2963 68.7814C80.2963 68.7459 80.3318 68.6215 80.3851 68.5859H80.7761C81.0782 68.5859 81.8068 68.6037 83.2107 68.6037C84.5257 68.6037 85.7519 68.6037 86.0718 68.6037C86.2139 68.6037 86.7471 68.6215 86.8181 68.6215C87.0136 68.6215 87.0847 68.6215 87.0847 68.7814L87.1736 70.4699C87.1736 70.4699 87.0492 70.541 86.9603 70.541C86.907 70.541 86.8537 70.541 86.8004 70.5233C86.3206 69.6701 86.0718 69.5102 85.663 69.2258C85.5209 69.1369 85.3432 69.0658 85.0233 69.048C84.9167 69.048 84.6679 69.0303 84.0104 69.0303C83.495 69.0303 83.2285 69.048 83.1751 69.048C83.0863 69.048 83.0863 69.048 83.0507 69.3324C83.0507 69.5102 83.0507 69.8479 83.0507 70.8254V71.7852H83.2818C83.6194 71.7852 83.957 71.7674 84.1348 71.7141C84.4369 71.643 84.739 71.4297 84.8989 71.1809C84.9522 71.092 85.0233 70.6832 85.0588 70.5588C85.1299 70.5233 85.2188 70.5055 85.2899 70.5055C85.3787 70.5055 85.4498 70.5233 85.4853 70.5588C85.4853 70.861 85.4143 71.4297 85.4143 72.1584C85.4143 72.5317 85.4676 73.3315 85.4676 73.6336C85.3787 73.6869 85.3609 73.6869 85.2543 73.6869C85.1832 73.6869 85.0944 73.6869 85.0233 73.6869C84.97 73.0471 84.8811 72.6028 84.3125 72.4073C84.0104 72.2828 83.7793 72.2473 83.495 72.2473C83.3528 72.2473 83.1396 72.2473 82.9974 72.2828V74.2379C82.9974 74.6823 83.033 74.9489 83.0863 75.1088C83.1396 75.2332 83.3173 75.4821 83.5306 75.5176C83.6372 75.5354 83.8504 75.5709 84.2236 75.5709H85.3254C85.592 75.5709 85.9651 75.5354 86.1073 75.4643C86.3916 75.2866 87.0847 74.5401 87.3157 73.8647C87.4046 73.8114 87.4757 73.8114 87.529 73.8114C87.5823 73.8114 87.6711 73.8291 87.7422 73.8647V75.8375C87.7422 76.0153 87.6178 76.0331 87.3513 76.0331" fill="#1C1C1C"/>
<path d="M92.6283 76.26C92.0063 76.26 91.331 76.0112 90.9045 75.8157C90.8334 75.7801 90.6912 75.7446 90.6202 75.7446C90.5491 75.7446 90.3181 75.869 90.0693 76.0467C89.8916 76.0467 89.6783 75.9579 89.625 75.8157C89.625 75.6735 89.7672 75.2114 89.7672 74.9092C89.7672 74.7315 89.7139 73.8784 89.6961 73.7006C89.7672 73.594 89.8916 73.5407 90.016 73.5407H90.1404C90.3003 73.8606 90.6024 74.6782 90.8334 74.9981C91.3132 75.5313 91.9885 75.7801 92.4861 75.7801C93.037 75.7801 93.4635 75.6735 93.6945 75.4069C94.0322 75.0692 94.121 74.8737 94.121 74.5182C94.121 74.2516 94.0677 74.0028 93.9078 73.8428C93.7123 73.594 93.5523 73.5051 93.1436 73.2918C92.806 73.1319 91.6686 72.8475 91.2421 72.6164C90.7268 72.3854 90.478 72.1721 90.2114 71.9055C89.8916 71.5145 89.7849 70.9635 89.7849 70.5369C89.7849 69.3461 90.7268 68.4219 92.0774 68.4219C92.575 68.4219 93.268 68.493 93.8544 68.9373C93.9788 68.8129 94.1388 68.6529 94.2987 68.5107C94.512 68.5107 94.6541 68.6352 94.6719 68.7063C94.6541 68.8662 94.5653 69.3461 94.5653 69.7193C94.5653 69.9149 94.6719 70.6969 94.6719 70.8391C94.6008 70.8746 94.512 70.9279 94.3876 70.9279C94.352 70.9279 94.2987 70.9279 94.2632 70.9102C94.0499 70.5369 93.8544 69.9326 93.6234 69.5949C93.2858 69.1328 92.806 68.9551 92.1307 68.9551C91.4021 68.9551 90.7979 69.435 90.7979 70.057C90.7979 70.6791 91.2954 70.9635 91.7042 71.159C92.0241 71.2656 92.3972 71.4256 92.8237 71.55C93.3746 71.7455 93.8011 71.8877 94.0144 71.9944C94.8852 72.4565 95.2406 73.0963 95.2406 73.9672C95.2406 75.3536 93.9966 76.2422 92.6105 76.2422" fill="#1C1C1C"/>
<path d="M81.8399 87.7874C79.5653 87.7874 78.3391 87.734 78.037 87.734C77.806 87.734 77.2373 87.734 76.953 87.734C76.6509 87.734 75.9223 87.7696 75.1226 87.7696H74.6605C74.6605 87.7696 74.625 87.6629 74.625 87.5918C74.625 87.5385 74.625 87.4497 74.625 87.3786C75.2292 87.343 75.6735 87.2364 75.7623 87.1475C75.8867 86.9875 75.9756 86.6854 76.0111 86.01C76.0111 85.6723 76.0111 85.2991 76.0111 84.8903C76.0111 84.3215 76.0111 83.6106 76.0111 82.8108V81.6199C75.9933 80.8024 75.6024 80.8023 74.7494 80.6957C74.7494 80.6246 74.7139 80.5713 74.7139 80.5002C74.7139 80.4647 74.7316 80.3225 74.7849 80.3047H75.2114C75.478 80.3047 76.2244 80.3225 77.646 80.3225C78.9433 80.3225 80.205 80.3225 80.4894 80.3225C80.6671 80.3225 81.1646 80.3402 81.2713 80.3402C81.4312 80.3402 81.5201 80.3402 81.5201 80.518L81.6267 82.2065C81.5201 82.2598 81.5023 82.2953 81.4134 82.2953C81.3424 82.2953 81.289 82.2953 81.2535 82.2598C80.7381 81.4244 80.5071 81.2467 80.1339 80.9623C79.9918 80.8734 79.7963 80.8024 79.4764 80.7668C79.3698 80.7668 79.1032 80.749 78.4813 80.749C77.9659 80.749 77.6993 80.7668 77.6283 80.7668C77.5572 80.7668 77.5572 80.7668 77.5216 81.069C77.5216 81.2289 77.4861 81.5844 77.4861 82.5619V83.5217H77.7527C78.0725 83.5217 78.4102 83.5039 78.6056 83.4506C78.89 83.3795 79.2099 83.1662 79.3698 82.9174C79.4409 82.8285 79.512 82.4197 79.5475 82.2953C79.583 82.2598 79.6897 82.2242 79.7785 82.2242C79.8496 82.2242 79.9207 82.242 79.974 82.2953C79.9562 82.5975 79.9029 83.1662 79.9029 83.8949C79.9029 84.2682 79.9385 85.0502 79.9385 85.3879C79.8496 85.4412 79.8141 85.4413 79.7252 85.4413C79.6719 85.4413 79.5653 85.4413 79.512 85.4413C79.4587 84.8014 79.3343 84.3748 78.8011 84.1438C78.499 84.0194 78.268 83.9838 77.9659 83.9838C77.8237 83.9838 77.6283 83.9838 77.4861 84.0194V85.9745C77.4861 86.4188 77.5216 86.7032 77.5927 86.8631C77.646 86.9698 77.8237 87.2364 78.037 87.2719C78.1436 87.2897 78.3391 87.3252 78.73 87.3252H79.7963C80.0629 87.3252 80.4716 87.2897 80.6137 87.2186C80.8803 87.0409 81.5734 86.2944 81.8044 85.6012C81.911 85.5479 81.9643 85.5479 82.0354 85.5479C82.0887 85.5479 82.1598 85.5657 82.2487 85.619V87.5918C82.2487 87.7696 82.1243 87.7874 81.8577 87.7874" fill="#1C1C1C"/>
<path d="M92.7258 80.6957C91.9616 80.7313 91.3041 81.1578 91.3041 82.3486V86.1877C91.3041 86.3477 91.3574 87.4319 91.3574 87.8407C91.233 87.894 91.1086 87.9473 91.0553 87.9473C91.002 87.9473 90.9309 87.894 90.8421 87.8407L85.5819 82.1709L85.6352 83.3262V85.4235C85.653 85.5834 85.6886 85.9745 85.7241 86.2766C85.7596 86.7565 85.9018 86.8987 86.1151 87.0586C86.3638 87.2897 86.7903 87.3608 87.1102 87.3963C87.1458 87.4497 87.1635 87.503 87.1635 87.5563C87.1635 87.5741 87.1635 87.6985 87.0924 87.7518H86.5238C86.044 87.7518 85.6708 87.7518 85.1732 87.7518C84.8356 87.7518 84.3735 87.7874 84.0536 87.7874H83.8049C83.8049 87.7874 83.8049 87.6452 83.8049 87.6096C83.8049 87.5741 83.8049 87.503 83.8404 87.4141C84.2136 87.3786 84.8178 87.2008 85.031 86.8987C85.1199 86.7209 85.1554 86.3655 85.1554 86.01V83.3262C85.1554 82.8996 85.1377 82.6686 85.1199 82.242C85.1021 81.9043 85.031 81.6377 84.8533 81.4422C84.8533 81.3889 84.6756 81.2289 84.4979 81.0512C84.338 80.909 83.9115 80.8024 83.6627 80.6779C83.6272 80.6068 83.6094 80.518 83.6094 80.518C83.6094 80.4469 83.6094 80.358 83.6627 80.3047H83.8582C84.0181 80.3047 84.8356 80.358 85.4398 80.358H85.7952C85.7952 80.358 85.9907 80.4647 86.0262 80.518L89.9358 84.7836C90.2379 85.0858 90.6111 85.5301 90.8243 85.8145V82.7219C90.8243 82.3309 90.8065 82.0287 90.771 81.8688C90.7355 81.5488 90.6821 81.2645 90.5577 81.0867C90.4334 80.8734 89.7048 80.7846 89.3316 80.6957C89.2783 80.6246 89.2783 80.5357 89.2783 80.4646C89.2783 80.4291 89.2783 80.3936 89.296 80.3047H89.527C89.8825 80.3047 90.4867 80.358 90.8421 80.358C91.7306 80.358 92.015 80.3225 92.4592 80.3225H92.7613C92.7613 80.3225 92.7969 80.4647 92.7969 80.518C92.7969 80.5535 92.7969 80.6424 92.7613 80.6957" fill="#1C1C1C"/>
<path d="M117.345 57.2816C116.599 57.3172 115.923 57.7438 115.923 58.9524V62.7737C115.923 62.9336 115.977 64.0178 115.977 64.4444C115.87 64.4977 115.728 64.5688 115.675 64.5688C115.621 64.5688 115.586 64.4977 115.461 64.4444L110.201 58.7746L110.272 59.9299V62.0094C110.272 62.1694 110.326 62.5604 110.343 62.8625C110.397 63.3424 110.521 63.4846 110.734 63.6624C111.001 63.8756 111.445 63.9467 111.73 63.9823C111.765 64.0356 111.783 64.1067 111.783 64.16C111.783 64.1778 111.783 64.2844 111.73 64.3555H111.143C110.681 64.3555 110.29 64.3555 109.793 64.3555C109.455 64.3555 109.011 64.3911 108.691 64.3911H108.442C108.442 64.3911 108.406 64.2489 108.406 64.2133C108.406 64.1778 108.406 64.1245 108.442 64.0178C108.797 63.9823 109.402 63.8045 109.615 63.5024C109.721 63.3069 109.739 62.9692 109.739 62.5959V59.9299C109.739 59.4856 109.739 59.2723 109.721 58.8457C109.721 58.508 109.615 58.2414 109.455 58.0459C109.419 57.9926 109.277 57.8149 109.082 57.6371C108.94 57.5127 108.495 57.3883 108.246 57.2639C108.246 57.1928 108.211 57.1039 108.211 57.1039C108.211 57.0506 108.229 56.9439 108.246 56.8906H108.442C108.584 56.8906 109.402 56.944 110.024 56.944H110.379C110.379 56.944 110.574 57.0506 110.61 57.1039L114.52 61.3696C114.822 61.6717 115.195 62.1161 115.39 62.4004V59.3078C115.39 58.9168 115.355 58.6147 115.337 58.4725C115.337 58.1526 115.248 57.8682 115.124 57.6727C114.999 57.4772 114.271 57.3705 113.915 57.2816C113.88 57.2106 113.862 57.1217 113.862 57.0684C113.862 57.0328 113.862 56.9795 113.898 56.9084H114.129C114.502 56.9084 115.07 56.9617 115.426 56.9617C116.314 56.9617 116.617 56.9262 117.061 56.9262H117.345C117.345 56.9262 117.398 57.0684 117.398 57.1217C117.398 57.175 117.381 57.2461 117.345 57.2994" fill="#1C1C1C"/>
<path d="M125.084 63.4571C124.355 64.168 123.36 64.5768 122.418 64.5768C121.477 64.5768 120.517 64.2036 119.806 63.5104C119.024 62.7639 118.688 61.7686 118.688 60.6666C118.688 59.5647 119.024 58.5871 119.806 57.8406C120.624 57.0586 121.53 56.7031 122.436 56.7031C123.076 56.7031 123.681 56.8986 124.41 57.2719C125.547 58.0184 126.239 59.2447 126.239 60.5955C126.239 61.6442 125.813 62.6928 125.084 63.4571ZM123.876 57.9828C123.502 57.5029 123.058 57.2008 122.401 57.2008C121.779 57.2008 121.37 57.4852 121.014 57.9828C120.57 58.5516 120.321 59.458 120.321 60.6311C120.321 61.8041 120.57 62.675 120.979 63.226C121.352 63.777 121.796 64.0614 122.454 64.0614C123.236 64.0614 123.698 63.6704 124.071 63.0305C124.409 62.4618 124.551 61.6619 124.551 60.6311C124.551 59.3869 124.32 58.5338 123.876 57.965" fill="#1C1C1C"/>
<path d="M135.698 57.3385C135.022 57.3918 134.578 57.765 134.383 58.2272L131.539 64.5368C131.539 64.5368 131.397 64.6434 131.308 64.6434C131.219 64.6434 131.095 64.5368 131.042 64.3413C130.971 64.128 130.633 63.2393 129.869 61.4975L128.963 59.4535C128.625 58.6893 128.376 58.1916 128.287 58.0317C127.932 57.4629 127.541 57.4096 127.097 57.3385C127.008 57.2674 127.008 57.1963 127.008 57.1607C127.008 57.0897 127.008 57.0541 127.061 56.9475H127.523C128.039 56.9475 128.483 57.0008 128.892 57.0008C129.354 57.0008 130.135 56.9297 130.669 56.9297H130.953C130.953 56.9297 131.042 57.0719 131.042 57.1074C131.042 57.143 131.042 57.2674 130.988 57.3029C130.633 57.3563 129.869 57.3207 129.869 57.8184C129.869 57.925 129.869 58.1205 129.94 58.2449L131.788 62.6705L133.37 59.0092C133.547 58.5826 133.565 58.2272 133.565 58.0317C133.565 57.6051 133.263 57.4273 132.499 57.3385C132.481 57.2852 132.446 57.2141 132.446 57.1607C132.446 57.1074 132.463 57.0008 132.499 56.9475H132.712C133.05 56.9475 133.405 57.0186 134.187 57.0186C134.312 57.0186 134.862 56.9652 135.111 56.9652H135.662C135.698 57.0541 135.698 57.0897 135.698 57.1607C135.698 57.2141 135.698 57.3029 135.627 57.3563" fill="#1C1C1C"/>
<path d="M114.887 70.9924C114.887 70.9924 114.763 70.9746 114.674 70.9746C114.514 70.5125 114.318 70.0859 114.123 69.8727C113.839 69.4816 113.519 69.2328 112.754 69.1617C112.577 69.1439 112.15 69.1439 112.026 69.1439V72.4498C112.008 72.9653 112.008 73.5696 112.026 74.7071C112.026 75.578 112.435 75.578 113.341 75.7024C113.394 75.7735 113.394 75.8624 113.394 75.8979C113.394 75.969 113.394 76.0045 113.359 76.0934H113.021C112.488 76.0934 111.457 76.0579 111.137 76.0579C110.906 76.0579 109.769 76.1112 109.2 76.1112C109.183 76.0223 109.165 76.0223 109.165 75.9157C109.165 75.8801 109.165 75.7913 109.183 75.7202C110.373 75.6135 110.498 75.418 110.551 75.027C110.551 74.7959 110.551 73.8006 110.551 72.8053V70.0859C110.551 69.7305 110.551 69.375 110.515 69.1617C110.284 69.1617 109.538 69.1617 109.342 69.2506C108.738 69.4639 108.33 69.9615 107.85 70.8858C107.779 70.8858 107.69 70.8858 107.654 70.8858C107.583 70.8858 107.53 70.8858 107.477 70.8324V68.9129C107.477 68.7529 107.512 68.6996 107.708 68.6996C107.903 68.6996 108.17 68.7174 108.525 68.7174C108.809 68.7174 109.893 68.7174 111.262 68.7174C113.039 68.7174 114.372 68.6641 114.727 68.6641C114.905 68.6641 115.029 68.6641 115.082 68.7352C115.1 68.7707 115.082 68.8951 115.082 69.0018V70.9213C115.082 70.9213 114.976 71.0279 114.905 71.0279" fill="#1C1C1C"/>
<path d="M123.842 76.0935H123.254C122.881 76.0935 122.438 76.0402 121.994 76.0402C121.283 76.0402 120.393 76.0935 120.038 76.0935C120.002 76.0402 119.985 75.9869 119.985 75.8802C119.985 75.8447 120.003 75.7736 120.021 75.7203C120.75 75.6847 121.033 75.5603 121.033 75.2581C121.033 75.1337 121.033 74.9027 120.802 74.2984C120.571 73.7474 120.464 73.4986 120.393 73.3564C120.376 73.3031 120.358 73.2853 120.198 73.2853H117.834C117.692 73.463 117.497 73.9962 117.283 74.7072C117.23 74.9027 117.231 75.0804 117.231 75.1337C117.231 75.3826 117.461 75.6492 118.296 75.6847C118.35 75.7558 118.35 75.8447 118.35 75.8802C118.35 75.9513 118.35 76.0046 118.332 76.0757H118.136C117.568 76.0757 117.426 76.0402 116.839 76.0402C116.466 76.0402 115.542 76.0757 115.24 76.0757C115.204 76.0046 115.188 75.9869 115.188 75.9158C115.188 75.8802 115.186 75.8091 115.24 75.738C115.684 75.6314 116.093 75.5248 116.306 75.1693C116.43 75.0093 116.821 74.3162 117.248 73.2497C117.674 72.2544 118.172 70.9925 118.403 70.4771C118.705 69.8194 118.83 69.6062 118.918 69.3929C119.061 69.0552 119.256 68.7353 119.309 68.6108C119.38 68.522 119.54 68.4688 119.611 68.4688C119.718 68.4688 119.878 68.5397 119.931 68.6286C120.002 68.753 120.073 68.913 120.109 69.0019C120.535 70.0327 120.874 70.9569 121.425 72.2189C121.692 72.8587 121.833 73.2853 122.135 73.9429C122.348 74.3695 122.455 74.6894 122.668 75.0804C122.952 75.6492 123.398 75.6492 123.842 75.7736C123.842 75.8269 123.912 75.8802 123.912 75.9335C123.912 76.0046 123.877 76.0403 123.842 76.1292M119.133 70.1572H119.114C118.954 70.4594 118.687 71.0814 118.581 71.3835C118.19 72.3433 118.048 72.681 117.977 72.8054H120.198C120.038 72.3611 119.452 70.9926 119.133 70.1572Z" fill="#1C1C1C"/>
<path d="M135.389 76.0821L132.35 76.0465H131.515C131.515 76.0465 131.48 75.9043 131.48 75.851C131.48 75.7444 131.497 75.7444 131.551 75.6555C131.711 75.6555 132.119 75.6555 132.297 75.5844C132.617 75.4422 132.724 75.1401 132.724 74.678V69.3104L131.142 72.8117C130.964 73.185 130.751 73.5938 130.591 74.0204C130.236 74.8202 130.04 75.3889 129.934 75.7088C129.88 75.8332 129.756 75.8332 129.703 75.8332C129.596 75.8332 129.525 75.7977 129.472 75.6377C129.258 75.1756 129.116 74.8913 129.045 74.7135L126.557 69.2393H126.504V70.6434L126.557 74.127C126.557 75.1934 127.108 75.7088 127.943 75.7088C127.979 75.7622 128.014 75.8688 128.014 75.8866C128.014 75.9399 128.014 75.9932 127.961 76.0643C127.908 76.0643 127.73 76.0821 127.588 76.0821C127.481 76.0821 126.93 76.0288 126.131 76.0288C125.917 76.0288 125.438 76.0465 125.082 76.0465H124.567C124.567 76.0465 124.531 75.9221 124.531 75.851C124.531 75.851 124.531 75.7444 124.567 75.6911C124.78 75.6377 125.509 75.4778 125.651 75.3178C125.811 75.1579 125.953 74.8557 125.953 74.0914V70.2524C125.935 69.6481 125.864 69.3992 125.562 69.2037C125.438 69.1326 124.976 69.0793 124.585 69.0082C124.531 68.9371 124.531 68.866 124.531 68.8127C124.531 68.7772 124.531 68.6883 124.585 68.6172C124.869 68.6172 125.384 68.6527 125.917 68.6527H127.73C127.73 68.6527 127.837 68.7416 127.89 68.8482L130.111 73.8959L130.502 72.8828C130.858 72.0653 131.355 70.8389 132.066 69.5414C132.226 69.2393 132.421 68.866 132.528 68.6705L135.371 68.6172C135.371 68.6172 135.443 68.7416 135.443 68.8127C135.443 68.8838 135.443 68.9193 135.389 68.9904C135.087 69.0615 134.554 69.0615 134.287 69.4703C134.199 69.6303 134.145 69.7547 134.145 70.359V73.967C134.145 75.3534 134.501 75.4956 134.661 75.5844C134.749 75.6555 135.176 75.6911 135.425 75.6911C135.46 75.7622 135.478 75.8155 135.478 75.8866C135.478 75.9754 135.443 75.9932 135.425 76.0643" fill="#1C1C1C"/>
<path d="M114.719 82.6934C114.719 82.6934 114.595 82.6756 114.488 82.6756C114.328 82.2135 114.133 81.7869 113.937 81.5736C113.653 81.1826 113.333 80.9516 112.569 80.8449C112.391 80.8272 111.965 80.8272 111.841 80.8272V84.133C111.823 84.6662 111.823 85.2705 111.841 86.408C111.841 87.279 112.249 87.279 113.138 87.4034C113.191 87.4745 113.191 87.5633 113.191 87.6167C113.191 87.6877 113.191 87.7233 113.156 87.8122H112.818C112.285 87.8122 111.236 87.7766 110.934 87.7766C110.703 87.7766 109.584 87.8122 109.015 87.8122C108.997 87.7233 108.979 87.7233 108.979 87.6167C108.979 87.5811 108.979 87.4922 108.997 87.4211C110.188 87.3323 110.312 87.119 110.366 86.728C110.366 86.4791 110.366 85.5016 110.366 84.5063V81.7869C110.366 81.4492 110.366 81.0938 110.312 80.8627C110.081 80.8627 109.335 80.8627 109.139 80.9693C108.535 81.1826 108.126 81.6981 107.664 82.6045C107.593 82.6045 107.504 82.6045 107.451 82.6045C107.38 82.6045 107.327 82.6045 107.273 82.5512V80.6316C107.273 80.4717 107.309 80.4006 107.504 80.4006C107.7 80.4006 107.966 80.4184 108.322 80.4184C108.606 80.4184 109.69 80.4361 111.059 80.4361C112.818 80.4361 114.168 80.3828 114.524 80.3828C114.702 80.3828 114.826 80.3828 114.879 80.4539C114.897 80.4895 114.879 80.6139 114.879 80.7205V82.6401C114.879 82.6401 114.773 82.7289 114.702 82.7289" fill="#1C1C1C"/>
<path d="M124 80.7524C123.325 80.8058 122.881 81.179 122.667 81.6411L119.824 87.933C119.824 87.933 119.7 88.0396 119.593 88.0396C119.504 88.0396 119.38 87.933 119.327 87.7374C119.255 87.5064 118.918 86.6355 118.154 84.8937L117.247 82.8497C116.927 82.0855 116.679 81.5878 116.59 81.4278C116.234 80.8591 115.843 80.788 115.399 80.7347C115.328 80.6636 115.328 80.6103 115.328 80.5569C115.328 80.4858 115.328 80.4325 115.381 80.3438H115.843C116.377 80.3438 116.803 80.397 117.212 80.397C117.674 80.397 118.438 80.3438 118.989 80.3438H119.273C119.273 80.3438 119.362 80.4681 119.362 80.5214C119.362 80.5747 119.362 80.6813 119.309 80.7169C118.953 80.7702 118.189 80.7347 118.189 81.2323C118.189 81.3212 118.189 81.5345 118.26 81.6589L120.108 86.0845L121.69 82.4232C121.868 81.9966 121.886 81.6411 121.886 81.4456C121.886 81.019 121.583 80.8413 120.819 80.7524C120.802 80.6991 120.784 80.628 120.784 80.5747C120.784 80.5214 120.802 80.4148 120.819 80.3615H121.033C121.37 80.3615 121.726 80.4147 122.525 80.4147C122.65 80.4147 123.201 80.3615 123.449 80.3615H124C124 80.3615 124.054 80.4681 124.054 80.5569C124.054 80.5925 124.054 80.6991 123.982 80.7524" fill="#1C1C1C"/>
<path d="M135.532 87.7874L132.529 87.7518H131.676C131.676 87.7518 131.64 87.6096 131.64 87.5563C131.64 87.4497 131.64 87.4319 131.676 87.3608C131.853 87.3608 132.244 87.3608 132.44 87.2897C132.724 87.1653 132.849 86.8454 132.849 86.401V82.0643C132.849 82.0643 132.866 81.2645 132.866 81.0334H132.831L131.267 84.517C131.072 84.908 130.876 85.3168 130.681 85.7256C130.325 86.5254 130.13 87.0942 130.023 87.4141C129.987 87.5563 129.863 87.5563 129.792 87.5563C129.703 87.5563 129.632 87.5208 129.561 87.343C129.366 86.8809 129.223 86.5965 129.17 86.4188L126.664 80.9445H126.611V82.3309L126.664 85.8145C126.7 86.8809 127.215 87.3786 128.086 87.3786C128.122 87.4319 128.139 87.5385 128.139 87.5741C128.139 87.6096 128.139 87.6807 128.104 87.7518C128.033 87.7518 127.891 87.7696 127.713 87.7696C127.606 87.7696 127.073 87.7163 126.291 87.7163C126.06 87.7163 125.58 87.734 125.225 87.734H124.727C124.727 87.734 124.674 87.6096 124.674 87.5385C124.674 87.5385 124.692 87.4319 124.727 87.3786C124.923 87.343 125.651 87.1653 125.811 87.0231C125.954 86.8631 126.096 86.561 126.096 85.7967V84.0371V81.9576C126.078 81.3533 126.025 81.1045 125.705 80.909C125.58 80.8201 125.118 80.7668 124.727 80.7135C124.674 80.6424 124.656 80.5713 124.656 80.518C124.656 80.4824 124.674 80.3936 124.727 80.3047C124.994 80.3047 125.545 80.3402 126.042 80.3402H127.873C127.873 80.3402 127.962 80.4469 128.015 80.5357L130.236 85.5834L130.645 84.5703C130.983 83.7705 131.498 82.5264 132.191 81.2289C132.333 80.9445 132.529 80.5713 132.653 80.358L135.461 80.3047C135.461 80.3047 135.55 80.4469 135.55 80.5002C135.55 80.5535 135.514 80.6068 135.479 80.6779C135.194 80.7313 134.643 80.7313 134.395 81.1578C134.306 81.3 134.217 81.4422 134.217 82.0465V85.6545C134.217 87.0409 134.572 87.1831 134.75 87.2719C134.821 87.3252 135.265 87.3786 135.496 87.3786C135.55 87.4497 135.568 87.5208 135.568 87.5918C135.568 87.6807 135.532 87.6985 135.496 87.7696" fill="#1C1C1C"/>
<path d="M957.463 42.9563C957.463 42.583 957.374 41.9076 957.178 41.6233H954.957C950.123 41.6233 947.067 41.8188 938.377 41.8188C935.391 41.8188 930.931 41.6233 929.9 41.6233H927.395C927.075 41.8188 927.004 42.8674 927.004 43.2584C927.004 43.7383 927.092 44.5026 927.483 44.9114C929.029 45.3912 934.912 46.0489 937.4 47.684C939.159 49.728 939.923 53.7626 940.207 57.5306C940.296 58.9525 940.385 60.4099 940.385 64.3556V84.5108C940.385 86.8214 940.296 87.6034 940.207 88.6699C938.555 86.8392 936.262 83.3733 932.388 79.0366L900.188 43.3295C899.903 42.9563 899.317 42.4586 898.73 42.0854C897.966 42.0854 896.616 41.9787 895.852 41.9787C889.667 41.9787 878.489 41.6943 876.872 41.6943C876.659 42.0676 876.481 42.6541 876.481 43.0274C876.481 43.2229 876.677 44.5737 876.766 44.8758C878.223 45.2491 881.386 45.7289 883.998 48.5372C885.544 50.2612 888.246 52.6784 889.099 54.5979C889.401 55.2911 889.49 56.3398 889.49 57.6905C889.49 62.6849 889.187 69.741 889.187 76.4772V96.0814C889.187 99.2629 888.921 101.769 888.619 103.404C886.593 105.537 883.519 107.065 878.49 108.327C878.312 108.825 878.116 109.572 878.116 110.051C878.116 110.354 878.205 111.331 878.401 111.402H880.249C882.168 111.402 886.611 111.118 889.49 111.118C893.737 111.118 896.616 111.402 900.579 111.402H906.372C906.745 111.331 906.834 110.14 906.834 109.767C906.834 109.394 906.745 108.612 906.549 108.221C903.191 107.35 898.268 106.568 894.999 102.249C894.305 100.791 893.737 93.6465 893.737 90.2695C893.737 87.1947 893.63 82.9646 893.63 77.2592C893.63 69.6344 893.737 62.9871 893.826 59.6279C894.412 60.2855 895.07 61.1564 895.567 61.7251L940.119 111.793C940.598 112.273 942.34 112.362 942.82 112.362C943.299 112.362 943.584 112.362 943.975 112.167C944.152 111.687 944.828 110.123 944.828 107.848C944.828 105.039 944.721 102.124 944.721 100.703V60.481C944.721 48.4127 950.426 45.0535 957.072 44.7514C957.374 44.2715 957.463 43.4184 957.463 42.9207M846.946 73.6157C846.946 88.1722 842.912 101.022 837.421 105.555C834.613 107.883 831.148 109.038 827.185 109.038C821.783 109.038 817.074 106.906 814.372 102.587C810.712 96.9879 808.686 86.5726 808.686 77.5081C808.686 64.089 812.133 53.5849 818.335 48.4661C821.605 45.7823 824.964 44.7158 828.34 44.7158C833.565 44.7158 838.576 47.2219 841.473 51.3632C845.134 56.3753 846.946 63.6091 846.946 73.6334M864.397 75.4641C864.397 61.974 858.444 51.6653 847.231 45.4623C841.26 42.1742 835.289 40.5391 828.927 40.5391C814.852 40.5391 802.111 48.9282 796.406 58.4904C792.745 64.4623 790.826 71.0207 790.826 77.9524C790.826 89.0431 796.229 99.9561 804.616 106.212C810.978 110.851 818.211 113.162 826.599 113.162C831.717 113.162 836.533 112.202 841.242 110.371C846.555 108.345 851.087 105.164 854.659 101.2C860.932 94.3574 864.38 85.5773 864.38 75.4641M779.631 63.307V43.6317C779.631 42.1742 779.08 41.801 777.623 41.801C774.726 41.801 759.496 42.1742 744.071 42.1742C732.112 42.1742 722.178 41.9965 716.793 41.9965H709.632C708.388 41.9965 707.997 42.2986 707.997 43.6317V62.0451C708.388 62.3472 709.045 62.4361 709.543 62.4361C709.934 62.4361 711.284 62.4361 711.657 62.2228C715.993 53.4782 720.045 48.7327 725.163 46.12C728.06 45.8534 733.746 45.7467 735.293 45.7467C735.381 46.8131 735.488 50.1901 735.577 54.2247C735.666 61.1742 735.666 64.1779 735.666 80.5651C735.666 94.7662 735.577 101.111 735.381 102.64C735.008 105.324 735.488 107.385 723.902 107.865C723.599 108.523 723.599 109.287 723.599 110.051C723.599 110.442 723.599 111.225 723.706 111.598H727.456C731.028 111.598 739.433 111.225 742.898 111.225C745.689 111.225 754.663 111.509 760.527 111.509H763.228C763.513 111.029 763.513 109.963 763.513 109.5C763.513 108.896 763.424 108.239 763.139 107.759C762.073 107.759 755.889 107.936 753.223 105.928C752.921 104.862 752.335 102.071 752.335 98.6764C752.246 88.2611 752.139 84.3153 752.139 77.3659C752.139 68.3902 752.246 62.3294 752.246 45.6401C753.596 45.6401 756.689 45.5512 759.568 45.6401C765.556 47.2752 768.453 49.4969 771.047 52.9628C772.682 55.1845 774.442 58.9347 776.148 63.467C776.734 63.6625 777.214 63.6625 777.783 63.6625C778.174 63.6625 779.435 63.467 779.613 63.2892M696.535 94.6418C696.535 93.3088 696.535 92.7045 696.428 91.8335C695.948 91.5314 695.753 91.5314 694.988 91.5314C694.295 91.5314 693.549 91.5314 692.856 91.7269C689.586 99.1563 684.859 104.95 682.265 106.479C680.825 107.368 678.604 107.545 675.032 107.545H667.142C664.05 107.545 661.633 107.261 660.78 107.065C659.322 106.781 657.776 104.471 657.119 102.906C656.426 101.271 656.053 101.271 656.053 96.8279V75.7129H659.625C660.602 75.7129 662.912 75.9084 665.489 77.0637C667.924 78.1301 668.883 79.5698 669.825 81.1161C670.714 82.4491 671.282 87.7634 671.46 89.132C671.94 89.3986 673.201 89.5052 673.983 89.5052C674.765 89.5052 675.227 89.3986 675.903 89.0253C675.903 86.4126 675.334 79.3921 675.334 75.5174C675.334 70.7008 675.991 64.0535 676.294 60.6054C675.903 60.3921 675.334 60.2144 674.374 60.2144C673.699 60.2144 672.455 60.2144 671.869 60.4988C671.584 61.8496 670.518 65.9019 670.323 66.1863C668.883 68.6213 666.36 70.4342 663.765 71.1985C662.041 71.6606 659.518 71.9627 658.185 71.9627H656.159V63.0048C656.159 53.727 656.355 50.7589 656.444 48.9993C656.55 47.8618 656.728 46.5998 656.835 45.7289C657.705 45.6223 658.185 45.5334 662.61 45.5334C668.19 45.5334 670.802 45.6223 671.673 45.6223C674.374 45.8356 676.4 46.4043 677.857 47.5596C681.518 50.3501 684.308 54.7757 687.116 59.5034C687.702 59.7167 688.662 59.7167 689.142 59.7167C689.711 59.7167 689.817 59.5034 690.599 59.148C690.599 53.2472 690.19 45.6401 689.995 43.2406C689.906 42.2809 689.711 41.9787 687.791 41.9787C687.009 41.9787 683.349 41.7832 679.492 41.7832C674.001 41.7832 671.762 41.8899 663.374 41.8899C658.86 41.8899 649.495 41.9787 645.55 41.9787C639.775 41.9787 634.834 41.7832 632.329 41.7832H629.059C628.775 42.1565 628.597 42.9385 628.597 43.3117C628.597 43.7916 628.775 44.8758 629.059 45.2491C630.214 45.6401 634.763 45.5512 636.114 46.3155C637.447 47.4707 638.691 47.9506 639.561 52.5895C639.757 54.6157 639.846 60.2144 639.846 64.64V84.5108C639.846 88.5632 639.757 94.4463 639.65 96.8457C639.473 100.614 638.122 105.146 637.553 106.017C636.683 106.674 632.72 107.279 628.863 107.439C628.579 108.025 628.384 109.003 628.384 109.572C628.384 110.14 628.579 110.833 628.863 111.313H632.044C635.136 111.313 646.51 111.029 649.122 111.029C651.521 111.029 656.159 111.225 661.739 111.225C664.831 111.225 673.877 111.793 693.371 111.793C694.153 111.793 695.006 111.882 695.966 111.598C696.268 111.118 696.268 110.922 696.357 110.051C696.552 108.132 696.552 102.444 696.552 94.6418M614.949 98.0188C614.647 97.1479 613.883 95.7082 611.661 95.7082C611.466 95.7082 611.181 95.8148 611.004 95.8148C605.21 104.026 598.849 107.101 591.598 107.101C581.593 107.101 574.432 100.347 572.139 94.3574C570.877 91.1759 569.154 84.2265 569.154 76.7971C569.154 69.7588 570.22 64.0713 572.05 59.9122C576.297 48.7327 582.464 45.2668 589.981 45.2668C596.254 45.2668 601.461 48.8393 605.406 53.9581C607.059 56.1798 608.782 60.5165 610.311 65.6353C610.702 65.7242 611.572 65.9197 612.443 65.9197C613.012 65.9197 614.362 65.4576 614.753 65.0488C614.665 64.0002 613.705 56.5708 613.705 54.2425C613.705 51.3632 614.469 46.6354 614.469 44.7869C613.883 44.2182 611.946 43.8272 610.702 43.7383C609.262 44.7869 608.782 46.0311 607.432 47.684C602.012 43.8094 597 40.8412 586.018 40.8412C575.889 40.8412 567.874 44.2893 561.814 50.3856C555.168 56.9263 551.489 66.0086 551.489 77.5792C551.489 89.914 556.696 100.045 565.084 106.426C570.398 110.265 578.199 112.877 587.546 112.877C599.311 112.877 607.894 108.434 612.23 102.569C613.954 100.24 614.149 99.6539 614.949 98.0188ZM539.885 42.9563C539.885 42.583 539.779 41.9076 539.601 41.6233H537.379C532.564 41.6233 529.471 41.8188 520.781 41.8188C517.814 41.8188 513.371 41.6233 512.305 41.6233H509.799C509.515 41.8188 509.408 42.8674 509.408 43.2584C509.408 43.7383 509.515 44.5026 509.924 44.9114C511.452 45.3912 517.334 46.0489 519.84 47.684C521.599 49.728 522.345 53.7626 522.63 57.5306C522.736 58.9525 522.843 60.4099 522.843 64.3556V84.5108C522.843 86.8214 522.736 87.6034 522.63 88.6699C520.995 86.8392 518.685 83.3733 514.828 79.0366L482.663 43.3295C482.361 42.9563 481.792 42.4586 481.206 42.0854C480.424 42.0854 479.091 41.9787 478.327 41.9787C472.143 41.9787 460.965 41.6943 459.312 41.6943C459.117 42.0676 458.939 42.6541 458.939 43.0274C458.939 43.2229 459.117 44.5737 459.206 44.8758C460.663 45.2491 463.844 45.7289 466.438 48.5372C468.002 50.2612 470.686 52.6784 471.556 54.5979C471.859 55.2911 471.947 56.3398 471.947 57.6905C471.947 62.6849 471.663 69.741 471.663 76.4772V96.0814C471.663 99.2629 471.379 101.769 471.094 103.404C469.069 105.537 465.994 107.065 460.965 108.327C460.77 108.825 460.574 109.572 460.574 110.051C460.574 110.354 460.663 111.331 460.858 111.402H462.689C464.626 111.402 469.051 111.118 471.947 111.118C476.195 111.118 479.074 111.402 483.036 111.402H488.794C489.167 111.331 489.274 110.14 489.274 109.767C489.274 109.394 489.167 108.612 488.99 108.221C485.631 107.35 480.744 106.568 477.456 102.249C476.781 100.791 476.212 93.6465 476.212 90.2695C476.212 87.1947 476.088 82.9646 476.088 77.2592C476.088 69.6344 476.212 62.9871 476.284 59.6279C476.852 60.2855 477.527 61.1564 478.025 61.7251L522.541 111.793C523.021 112.273 524.762 112.362 525.242 112.362C525.722 112.362 526.024 112.362 526.397 112.167C526.593 111.687 527.268 110.123 527.268 107.848C527.268 105.039 527.161 102.124 527.161 100.703V60.481C527.161 48.4127 532.848 45.0535 539.512 44.7514C539.814 44.2715 539.903 43.4184 539.903 42.9207M444.545 109.785C444.545 109.305 444.438 108.239 444.261 107.865C442.803 107.759 438.876 107.385 437.134 106.994C435.588 105.146 434.522 103.031 433.847 99.565C433.74 94.9261 433.634 85.3818 433.634 76.4061V52.6784C433.634 50.0835 434.7 48.0395 435.375 47.453C437.223 45.7289 440.866 45.3557 443.958 44.9469C444.154 44.5737 444.243 43.525 444.243 43.1162C444.243 42.5297 443.958 41.7654 443.763 41.5699H440.955C436.903 41.5699 427.449 42.0498 424.18 42.0498C422.154 42.0498 412.7 41.7654 408.47 41.6766H406.355C406.071 42.0498 405.876 42.4231 405.876 43.294C405.876 43.7028 405.947 44.6625 406.053 45.1246C410.798 45.5157 412.895 45.9955 413.588 46.4932C414.743 47.3641 416.378 49.4792 416.769 54.669C416.858 56.5175 416.947 60.4632 417.036 69.3322C417.142 74.1666 417.231 80.9028 417.231 86.5015C417.231 89.2919 417.036 95.566 416.929 98.9252C416.751 101.254 416.254 103.475 415.596 104.719C414.441 105.679 413.268 107.403 406.249 107.901C406.036 108.292 405.929 109.536 405.929 109.945C405.929 110.709 406.142 111.082 406.142 111.58H407.777C411.633 111.58 421.283 111.1 426.294 111.1C427.752 111.1 437.756 111.384 440.955 111.384H444.154C444.42 110.905 444.527 110.123 444.527 109.749M367.224 59.4501C367.224 65.422 363.172 72.2826 358.445 73.4201C356.526 73.9 354.092 74.2022 350.537 74.2022C349.56 74.2022 348.103 74.2022 346.966 73.9889L346.859 65.7953V48.0573C346.859 46.902 347.143 46.2266 347.445 45.9245C347.73 45.6401 349.471 45.3735 351.497 45.3735C359.014 45.3735 362.284 46.0133 364.985 50.5634C366.513 53.1761 367.206 56.162 367.206 59.4501M395.178 109.891C395.178 109.412 394.982 108.256 394.698 107.883C393.738 107.883 389.793 107.688 388.336 106.603C387.856 106.035 387.092 104.879 386.701 104.186C385.439 99.7606 384.018 96.7568 382.56 93.1132C380.517 88.2788 377.727 83.7466 375.417 81.6138C374.546 80.8673 371.56 79.6053 368.184 78.4501C366.656 77.8813 365.394 77.3836 364.239 76.9215C365.678 76.6372 366.353 76.5127 368.184 76.3528C375.328 75.4641 376.963 74.22 378.793 72.7625C382.667 69.8654 384.782 65.4398 384.782 60.2322C384.782 52.4118 379.77 44.9114 372.733 42.6719C370.405 41.9965 366.282 41.6233 361.164 41.6233C353.932 41.6233 343.802 42.2986 338.986 42.2986C337.529 42.2986 329.141 42.1031 325.765 42.1031C324.326 42.1031 320.665 41.9076 320.078 41.9076C319.776 42.583 319.599 43.3295 319.599 43.7383C319.599 44.1115 319.687 45.0891 319.776 45.4623C321.429 45.6578 324.414 46.0311 325.96 46.3332C328.253 48.0751 329.035 49.4258 330.012 51.5587C330.492 54.6335 330.581 62.5427 330.581 76.1395C330.581 85.9683 330.688 97.3611 330.208 101.04C329.923 103.44 329.053 106.319 326.245 107.474C325.001 107.688 322.673 108.061 320.754 108.15C320.434 108.63 320.256 109.607 320.256 110.069C320.256 110.371 320.434 111.136 320.647 111.616C322.015 111.616 336.765 111.331 339.839 111.331C346.006 111.331 351.231 111.616 356.722 111.616C356.935 111.242 357.113 110.549 357.113 110.158C357.113 109.5 356.935 108.523 356.722 108.132C354.802 107.936 352.386 107.385 351.337 107.172C348.92 106.035 347.179 103.724 347.179 100.329L347.09 78.0768C347.854 77.9524 348.831 77.9524 349.596 77.9524C350.84 77.9524 352.297 78.1657 354.714 79.4987C358.268 81.5249 360.027 82.9823 362.337 86.5548C365.429 91.3714 367.455 100.24 368.397 107.297C368.699 109.305 369.463 111.065 371.294 111.242C372.058 111.349 377.176 111.527 380.837 111.527H394.627C395 111.136 395.195 110.371 395.195 109.891M290.454 59.9122C290.454 64.8355 288.713 69.19 285.532 71.9805C283.506 73.6157 280.307 74.5932 275.491 74.5932C273.483 74.5932 271.92 74.5221 271.351 74.4155C270.569 74.3088 270.071 74.22 270.071 73.7223L270.196 45.4801C271.351 45.409 272.986 45.0002 275.794 45.0002C282.351 45.0002 286.403 46.6354 288.322 50.7055C289.655 53.2827 290.437 56.5708 290.437 59.9478M307.71 60.321C307.71 53.0872 303.569 46.3332 297.403 43.5606C294.222 42.192 288.624 41.3389 280.147 41.3389C272.719 41.3389 261.133 41.9076 256.05 41.9076C252.478 41.9076 247.076 41.5166 244.091 41.5166C243.788 41.9965 243.593 42.6719 243.593 43.0629C243.593 43.4539 243.593 44.5203 243.895 44.9825C245.725 45.569 248.729 46.0311 250.648 46.5288C252.265 47.9684 252.656 49.2303 253.242 52.0208C253.527 55.3978 253.722 59.6456 253.722 66.9683C253.722 87.3191 253.616 98.0187 253.331 100.329C252.94 103.244 251.021 106.212 247.822 107.172C246.365 107.457 244.25 107.936 242.242 108.132C242.154 108.612 242.047 109.287 242.047 110.158C242.047 110.94 242.171 111.047 242.331 111.527C245.423 111.527 254.486 111.136 257.97 111.136C266.553 111.136 275.332 111.527 278.868 111.527H281.303C281.605 111.136 281.605 110.46 281.605 109.98C281.605 109.394 281.605 108.612 281.409 108.239C278.513 107.865 274.176 107.279 272.346 105.146C271.386 104.008 270.409 102.355 270.409 99.4584L270.125 78.2368C275.918 78.6278 282.102 78.8055 285.461 78.8055C289.904 78.8055 293.653 78.059 296.639 77.0815C303.48 74.4866 307.728 67.7148 307.728 60.3033" fill="#1C1C1C"/>
<path d="M958.994 150.543C958.994 149.957 958.603 149.761 958.408 149.388C954.445 149.388 949.256 149.672 947.212 149.672C942.307 149.672 936.336 149.281 933.724 149.281C933.44 149.868 933.333 149.957 933.333 150.437C933.333 150.916 933.44 151.29 933.511 151.592C936.318 152.161 940.352 152.854 941.134 154.205C941.81 155.431 942.023 156.408 942.023 157.955C942.023 159.11 941.934 160.265 941.437 161.527C940.566 163.927 938.735 167.695 936.141 173.009C931.698 181.967 928.908 187.548 927.344 189.769C924.856 185.557 919.259 174.36 917.908 171.463L912.506 159.697C912.31 159.323 912.115 157.955 912.115 157.084C912.115 155.84 912.31 154.951 912.506 154.596C913.376 152.854 916.362 152.658 920.431 152.161C920.609 151.681 920.716 151.112 920.716 150.721C920.716 150.046 920.431 150.241 920.147 149.761H918.423C911.955 149.761 913.892 150.063 902.785 150.063C898.076 150.063 892.371 149.761 891.607 149.761C891.216 150.454 891.021 150.543 891.021 151.219C891.021 151.61 891.127 151.912 891.412 152.392C897.863 153.902 899.782 155.075 900.475 156.337L917.357 189.414C918.992 192.524 919.952 194.906 920.449 196.648C921.107 199.349 921.213 203.313 921.213 208.218C921.213 212.395 919.774 214.599 918.121 215.665C917.446 216.057 912.612 216.714 910.409 216.91C910.036 217.585 909.929 217.781 909.929 218.26C909.929 218.74 910.142 219.042 910.231 219.416C915.154 219.416 920.271 219.291 923.15 219.291C925.176 219.291 928.268 219.416 933.955 219.505C937.243 219.593 939.73 219.7 941.472 219.7C941.667 219.291 941.987 218.918 941.987 218.438C941.987 217.958 941.863 217.674 941.596 217.194C938.487 216.803 934.168 216.216 933.209 215.257C931.663 213.604 930.898 212.857 930.703 209.089L929.921 194.604C929.814 193.555 930.205 192.595 930.294 192.311C930.596 191.227 930.97 190.391 931.343 189.609L946.217 160.194C947.55 157.688 950.464 154.88 952.383 153.742C953.752 152.872 956.755 152.285 958.656 151.805C958.87 151.325 959.047 150.952 959.047 150.561M881.069 170.414V151.681C881.069 150.241 880.5 149.868 879.061 149.868C876.164 149.868 862.854 150.241 847.411 150.241C835.469 150.241 827.455 150.046 822.052 150.046H814.926C813.682 150.046 813.291 150.33 813.291 151.681V169.134C813.682 169.436 813.984 169.525 814.446 169.525C814.837 169.525 815.228 169.525 815.602 169.348C819.351 160.941 821.288 156.515 827.757 153.227C830.653 152.925 840.765 152.854 842.329 152.854C842.418 153.885 842.507 157.279 842.613 161.332C842.72 168.263 842.72 172.014 842.72 188.436C842.72 202.602 842.613 209.925 842.435 211.471C842.062 214.19 842.542 216.199 830.956 216.679C830.671 217.336 830.671 217.549 830.671 218.314C830.671 218.705 830.671 219.078 830.76 219.469H834.527C838.082 219.469 842.809 219.078 846.292 219.078C849.1 219.078 854.395 219.38 860.26 219.38H862.961C863.263 218.9 863.263 218.403 863.263 217.941C863.263 217.336 863.156 217.052 862.872 216.572C861.806 216.572 855.639 216.767 852.938 214.723C852.636 213.675 852.067 210.884 852.067 207.507C851.996 197.092 851.872 192.151 851.872 185.202C851.872 176.244 851.996 169.401 851.996 152.712C853.329 152.712 860.473 152.605 863.369 152.712C869.323 154.329 871.651 156.551 874.245 160.034C876.555 163.127 877.142 165.935 878.581 170.538C879.168 170.752 879.452 170.752 880.038 170.752C880.412 170.752 880.909 170.538 881.105 170.361M800.941 218.029C800.941 217.549 800.834 217.07 800.656 216.696C799.217 216.59 795.254 216.216 793.495 215.825C791.966 213.995 790.9 211.88 790.243 208.414C790.136 203.793 790.047 193.271 790.047 184.295V159.821C790.047 157.208 791.113 155.164 791.771 154.613C793.619 152.872 797.28 152.48 800.354 152.089C800.55 151.698 800.656 151.219 800.656 150.863C800.656 150.259 800.354 149.886 800.159 149.708H797.369C793.317 149.708 787.542 150.17 784.236 150.17C782.228 150.17 776.435 149.886 772.188 149.779H770.055C769.771 150.17 769.593 150.17 769.593 151.023C769.593 151.414 769.7 151.805 769.771 152.285C774.498 152.676 776.63 153.156 777.288 153.618C778.443 154.507 780.096 156.604 780.487 161.829C780.593 163.66 780.664 168.583 780.771 177.452C780.86 182.269 780.949 188.845 780.949 194.426C780.949 197.234 780.771 204.468 780.664 207.827C780.487 210.138 780.007 212.377 779.331 213.604C778.176 214.581 777.003 216.305 769.966 216.803C769.771 217.194 769.682 217.852 769.682 218.243C769.682 219.025 769.842 219.025 769.842 219.487H771.512C775.369 219.487 781.34 219.007 786.369 219.007C787.826 219.007 794.17 219.274 797.369 219.274H800.532C800.816 218.811 800.923 218.42 800.923 218.029M753.297 200.309C753.297 192.595 749.85 187.299 742.404 183.335C740.396 182.18 736.824 180.918 731.724 179.461C725.824 177.826 720.919 175.906 717.738 174.164C715.623 173.027 712.034 169.827 712.034 163.66C712.034 157.493 718.307 152.392 725.628 152.392C731.421 152.392 736.06 155.271 738.85 159.11C741.266 162.505 742.119 164.051 744.821 170.112C745.123 170.219 745.496 170.325 745.78 170.325C746.651 170.325 747.415 169.845 747.913 169.365C747.628 166.948 747.149 163.571 747.149 160.674C747.149 158.186 747.735 154.898 748.019 153.156C747.237 152.001 746.367 151.805 745.123 151.805C743.772 152.676 742.51 154.009 741.355 155.289C734.993 150.17 729.804 149.299 724.971 149.299C713.118 149.299 704.623 157.226 704.623 167.712C704.623 171.285 705.885 174.751 708.177 178.323C710.31 181.309 713.402 183.638 717.542 185.362C720.332 186.499 732.861 190.285 734.602 190.96C742.315 193.964 745.229 196.541 745.229 203.384C745.229 206.779 743.772 209.765 740.982 213.124C738.494 216.216 734.531 217.674 730.302 217.674C725.753 217.674 717.951 215.754 714.095 210.547C711.767 207.561 708.497 201.287 707.538 197.519C707.087 197.4 706.637 197.341 706.187 197.341C705.618 197.341 704.925 197.519 704.357 197.91C704.357 199.172 704.747 205.517 704.747 207.454C704.747 212.164 703.877 214.492 703.681 216.057C703.948 217.016 705.601 217.976 706.791 217.976C708.799 216.234 710.914 214.883 711.607 214.883C712.176 214.883 713.029 215.168 713.899 215.754C720.173 219.825 725.379 220.571 730.018 220.571C743.594 220.571 753.333 213.728 753.333 200.327M667.98 167.019C667.98 173.187 663.057 180.136 657.388 181.398C655.043 181.878 651.666 182.18 647.348 182.18C646.193 182.18 642.923 182.18 641.484 181.967L641.377 173.489V155.253C641.377 153.973 641.679 153.316 642.034 153.031C642.425 152.747 646.388 152.445 648.787 152.445C657.85 152.445 662.009 153.316 665.296 158.044C667.145 160.639 667.998 163.642 667.998 167.019M688.221 218.118C688.221 217.656 688.043 217.07 687.741 216.696C686.781 216.696 682.836 216.519 681.379 215.417C680.899 214.848 680.135 213.693 679.744 213.017C678.5 208.574 677.15 204.628 675.692 200.967C673.666 196.132 670.859 191.6 668.566 189.485C667.695 188.721 664.994 187.441 661.618 186.304C660.09 185.717 658.828 185.237 657.673 184.757C659.13 184.473 659.787 184.384 661.618 184.189C667.891 183.424 670.023 182.073 671.854 180.616C675.71 177.737 678.216 173.4 678.216 168.175C678.216 160.372 673.204 152.943 666.167 150.721C663.839 150.046 659.699 149.672 654.598 149.672C647.366 149.672 641.963 150.33 637.147 150.33C635.708 150.33 630.963 150.152 627.605 150.152C626.147 150.152 622.487 149.957 621.9 149.957C621.616 150.614 621.42 150.845 621.42 151.201C621.42 151.592 621.509 152.161 621.616 152.552C623.251 152.747 626.236 153.12 627.765 153.422C630.092 155.147 630.857 156.533 631.816 158.648C632.296 161.723 632.403 170.414 632.403 184.011C632.403 193.84 632.492 206.192 632.012 209.854C631.727 212.253 630.857 215.15 628.049 216.305C626.805 216.519 624.477 216.892 622.558 216.998C622.273 217.461 622.06 217.852 622.06 218.332C622.06 218.634 622.256 219.007 622.451 219.487C623.802 219.487 634.908 219.202 637.983 219.202C644.167 219.202 645.695 219.487 651.186 219.487C651.382 219.096 651.577 218.811 651.577 218.42C651.577 217.745 651.382 217.354 651.186 216.998C649.267 216.803 646.85 216.216 645.784 216.039C643.385 214.866 641.643 212.555 641.643 209.178L641.537 185.077C642.319 184.971 645.091 184.971 645.873 184.971C648.467 184.971 651.098 185.184 653.585 186.339C657.246 187.974 660.729 190.587 663.039 194.142C666.132 198.958 668.157 208.129 669.135 215.168C669.419 217.212 670.183 218.936 672.014 219.114C672.778 219.22 673.951 219.416 677.612 219.416H687.634C688.025 219.025 688.203 218.651 688.203 218.136M607.31 203.491C607.31 202.14 607.31 201.553 607.221 200.682C606.724 200.38 606.564 200.38 605.764 200.38C605.089 200.38 605.178 200.38 604.503 200.594C602.388 207.632 598.727 212.857 594.569 215.346C593.129 216.216 590.517 216.394 586.376 216.394H575.572C572.213 216.288 570.081 216.11 569.192 215.914C567.753 215.648 566.207 213.319 565.549 211.773C564.856 210.138 564.483 209.551 564.483 205.108V183.122H567.575C570.667 183.122 573.173 183.335 575.749 184.491C578.184 185.557 579.997 187.068 580.956 188.632C581.845 190 582.129 195.297 582.325 196.63C582.787 196.932 583.089 197.003 583.853 197.003C584.617 197.003 584.724 196.932 585.399 196.523C585.399 193.946 584.83 186.89 584.83 183.033C584.83 178.217 585.506 172.316 585.772 168.85C585.399 168.654 585.203 168.459 584.244 168.459C583.551 168.459 583.284 168.459 582.68 168.726C582.396 170.094 581.632 174.146 581.454 174.449C579.997 176.848 576.62 178.785 574.026 179.55C572.266 180.03 569.778 180.332 566.1 180.332H564.554V170.858C564.554 161.598 564.749 157.848 564.838 156.089C564.945 154.933 565.14 153.689 565.229 152.836C566.1 152.729 568.89 152.64 573.333 152.64C578.913 152.64 583.071 152.747 583.942 152.747C586.643 152.925 588.651 153.511 590.108 154.667C594.817 158.328 596.079 160.763 598.691 166.628C599.26 166.806 599.349 166.806 599.847 166.806C600.415 166.806 600.522 166.628 601.286 166.237C601.286 160.354 600.913 153.707 600.717 151.272C600.611 150.312 600.433 150.028 598.496 150.028C597.714 150.028 594.053 149.832 590.215 149.832C584.706 149.832 582.485 149.921 574.097 149.921C569.565 149.921 561.568 150.028 557.605 150.028C551.83 150.028 550.55 149.832 548.045 149.832H544.739C544.437 150.205 544.242 150.579 544.242 150.97C544.242 151.467 544.437 151.93 544.739 152.338C545.895 152.712 550.462 152.623 551.812 153.369C553.145 154.542 554.407 154.827 555.277 159.448C555.473 161.474 555.58 168.05 555.58 172.476V192.329C555.58 196.381 555.473 203.046 555.384 205.446C555.189 209.214 553.838 213.941 553.252 214.812C552.381 215.506 548.418 216.057 544.544 216.252C544.242 216.839 544.029 217.23 544.029 217.798C544.029 218.367 544.242 218.669 544.544 219.149H547.725C550.835 219.149 558.547 218.865 561.142 218.865C563.559 218.865 566.828 219.06 572.409 219.06C575.501 219.06 584.546 219.647 604.058 219.647C604.822 219.647 605.693 219.753 606.653 219.451C606.937 218.971 606.937 218.776 607.026 217.923C607.221 216.003 607.221 211.258 607.221 203.455M535.925 150.845C535.925 150.454 535.818 149.868 535.445 149.761H532.175C529.865 149.761 526.204 149.957 524.552 149.957C516.75 149.957 513.96 149.477 512.788 149.477H511.064C510.868 149.957 510.584 150.259 510.584 150.739C510.584 151.13 510.779 151.432 510.779 151.805C513.179 152.089 515.293 152.587 517.444 153.263C518.581 154.418 519.86 156.746 519.86 159.359C519.86 160.301 518.901 164.851 517.532 168.121L502.018 206.299L482.968 157.973C483.253 155.68 484.514 153.44 486.131 152.569C487.766 152.392 489.774 151.787 492.387 151.787C492.564 151.414 492.76 150.845 492.76 150.454C492.76 150.063 492.671 149.477 492.28 149.406H489.845C486.896 149.406 482.382 149.779 477.282 149.779C475.06 149.779 470.724 149.583 466.477 149.583H462.727C462.532 149.974 462.336 150.17 462.336 150.739C462.336 151.307 462.443 151.521 462.621 151.912C465.322 152.569 467.916 153.636 470.724 155.164C472.555 157.884 476.5 167.624 478.632 172.725L486.611 192.027C493.24 208.058 497.22 218.74 497.682 220.571C498.162 220.873 497.682 221.14 498.553 221.14C499.424 221.14 499.335 220.98 499.513 220.482L524.392 160.674C525.263 158.559 526.595 156.551 527.857 155.164C529.403 153.44 532.584 152.765 535.57 152.089C535.676 151.698 535.961 151.307 535.961 150.863M451.478 218.029C451.478 217.549 451.39 217.07 451.194 216.696C449.737 216.59 445.81 216.216 444.068 215.825C442.522 213.995 441.473 211.88 440.78 208.414C440.692 203.793 440.603 193.271 440.603 184.295V159.821C440.603 157.208 441.651 155.164 442.326 154.613C444.157 152.872 447.818 152.48 450.892 152.089C451.087 151.698 451.194 151.219 451.194 150.863C451.194 150.259 450.892 149.886 450.714 149.708H447.924C443.855 149.708 438.079 150.17 434.809 150.17C432.784 150.17 426.99 149.886 422.761 149.779H420.628C420.344 150.17 420.148 150.17 420.148 151.023C420.148 151.414 420.255 151.805 420.344 152.285C425.071 152.676 427.186 153.156 427.861 153.618C429.016 154.507 430.651 156.604 431.042 161.829C431.131 163.66 431.237 168.583 431.326 177.452C431.433 182.269 431.522 188.845 431.522 194.426C431.522 197.234 431.326 204.468 431.22 207.827C431.024 210.138 430.544 212.377 429.851 213.604C428.696 214.581 427.541 216.305 420.504 216.803C420.308 217.194 420.202 217.852 420.202 218.243C420.202 219.025 420.415 219.025 420.415 219.487H422.032C425.906 219.487 431.895 219.007 436.889 219.007C438.346 219.007 444.708 219.274 447.889 219.274H451.07C451.372 218.811 451.461 218.42 451.461 218.029M407.887 150.614C407.887 150.241 407.78 149.957 407.585 149.672H405.381C400.547 149.672 398.433 149.868 389.76 149.868C386.757 149.868 382.315 149.672 381.284 149.672H378.76C378.476 149.868 378.387 150.543 378.387 150.916C378.387 151.396 378.476 151.592 378.867 151.965C380.413 152.445 386.295 153.12 388.819 154.773C390.542 156.817 391.307 160.87 391.609 164.62C391.697 166.042 391.786 167.517 391.786 171.463V200.114C391.786 202.442 391.697 203.206 391.609 204.255C389.974 202.424 387.166 198.834 383.416 194.408L346.577 151.396C346.293 151.005 345.725 150.525 345.12 150.134C344.356 150.134 343.397 150.046 342.632 150.046C336.466 150.046 331.064 149.743 329.411 149.743C329.233 150.134 329.127 150.312 329.127 150.703C329.127 150.916 329.233 151.663 329.322 151.947C330.779 152.356 335.026 152.836 336.768 154.667C338.314 156.391 340.607 158.417 341.477 160.354C341.762 161.03 341.868 162.078 341.868 163.429C341.868 168.441 341.566 177.595 341.566 184.366V204.912C341.566 208.094 341.264 210.6 340.98 212.235C338.954 214.368 335.879 215.897 330.85 217.158C330.655 217.638 330.477 217.816 330.477 218.314C330.477 218.616 330.566 219.185 330.762 219.256H332.574C334.511 219.256 338.954 218.989 341.85 218.989C346.062 218.989 348.017 219.256 351.944 219.256H357.773C358.146 219.185 358.217 218.403 358.217 218.012C358.217 217.621 358.146 217.443 357.933 217.052C354.557 216.181 349.652 215.399 346.382 211.062C345.707 209.605 345.103 202.3 345.103 198.923C345.103 195.848 345.014 190.818 345.014 185.148C345.014 177.523 345.103 167.001 345.227 163.642C345.796 164.3 346.684 165.349 347.342 166.148L393.048 219.682C393.528 220.162 393.723 220.233 394.221 220.233C394.719 220.233 394.399 220.233 394.79 220.056C394.985 219.576 395.269 218.029 395.269 215.719C395.269 212.911 395.163 210.031 395.163 208.574V167.588C395.163 155.538 400.867 152.143 407.514 151.876C407.798 151.396 407.904 151.094 407.904 150.597M318.589 151.112C318.589 150.721 318.411 150.152 318.109 149.868H315.319C312.333 149.868 308.281 150.063 304.798 150.063C300.96 150.063 296.606 149.868 293.798 149.868H290.351C290.049 150.437 289.96 150.614 289.96 151.112C289.96 151.503 290.066 151.894 290.244 152.392C290.635 152.392 297.672 152.463 298.916 154.222C299.983 155.68 302.293 159.217 302.684 161.349C302.879 162.309 303.448 166.273 303.448 171.943C303.448 180.136 303.448 185.628 303.359 188.525C303.163 193.946 302.577 198.176 301.617 201.358C298.916 209.765 292.661 213.906 282.727 213.906C278.48 213.906 274.819 213.035 271.443 211.489C265.17 208.414 262.166 202.531 262.077 199.332L261.598 170.414L261.527 158.648C261.527 156.408 264.299 154.382 265.258 153.227C266.04 152.854 270.288 152.445 272.704 152.267C272.989 151.681 273.184 151.396 273.184 150.934C273.184 150.472 272.9 149.957 272.509 149.69L268.866 149.761C265.276 149.868 260.567 149.957 257.581 149.957C252.943 149.957 249.371 149.868 246.492 149.868H242.441C242.05 150.152 241.961 150.721 241.961 151.201C241.961 151.681 242.05 152.072 242.352 152.374C245.444 152.747 247.452 153.049 248.803 153.316C250.455 154.276 251.61 155.911 252.179 157.564C252.286 158.843 252.463 161.9 252.463 167.979V191.138C252.463 197.128 252.766 201.34 253.441 204.059C254.667 209.071 257.386 213.035 261.829 215.914C266.556 219.007 272.438 220.553 279.475 220.553C285.944 220.553 291.435 219.202 296.055 216.607C300.871 213.995 303.874 209.765 305.598 203.775C306.558 200.22 307.144 196.346 307.144 192.293V173.773C307.144 170.307 307.34 165.971 307.34 164.211C307.428 159.021 308.779 155.911 310.236 153.6C311.782 153.12 313.133 152.854 318.233 152.267C318.429 151.894 318.624 151.592 318.624 151.112" fill="#1C1C1C"/>
</g>
</g>
<defs>
<clipPath id="clip0_3778_48218">
<rect width="959" height="262" fill="white"/>
</clipPath>
</defs>
</svg>
