<svg width="66" height="77" viewBox="0 0 66 77" fill="none" xmlns="http://www.w3.org/2000/svg">
<path d="M57.781 16.2858C57.267 16.0202 56.7667 15.729 56.2818 15.4133C54.8719 14.4812 53.5793 13.383 52.4317 12.1422C49.5603 8.85677 48.4879 5.52378 48.0929 3.19021H48.1088C47.7788 1.25324 47.9152 0 47.9359 0H34.8577V50.5707C34.8577 51.2497 34.8577 51.9207 34.8292 52.5838C34.8292 52.6663 34.8213 52.7424 34.8165 52.8313C34.8165 52.8678 34.8165 52.9058 34.8086 52.9439V52.9725C34.6707 54.7869 34.0891 56.5397 33.1148 58.0766C32.1405 59.6136 30.8035 60.8875 29.2213 61.7864C27.5724 62.7245 25.7073 63.2166 23.8102 63.2141C17.7169 63.2141 12.7785 58.2456 12.7785 52.1095C12.7785 45.9733 17.7169 41.0048 23.8102 41.0048C24.9636 41.0037 26.1099 41.1852 27.2066 41.5426L27.2225 28.2265C23.8932 27.7964 20.511 28.061 17.2892 29.0036C14.0673 29.9461 11.0757 31.5461 8.50318 33.7027C6.24904 35.6612 4.35397 37.9981 2.90326 40.6082C2.3512 41.56 0.268276 45.3848 0.0160413 51.5923C-0.142597 55.1157 0.915519 58.7659 1.41999 60.2746V60.3063C1.73727 61.1947 2.96671 64.2263 4.97031 66.7819C6.58594 68.8319 8.49475 70.6328 10.6353 72.1264V72.0947L10.667 72.1264C16.9983 76.4287 24.018 76.1463 24.018 76.1463C25.2332 76.0971 29.3038 76.1463 33.9265 73.9555C39.0537 71.5268 41.9727 67.9082 41.9727 67.9082C43.8374 65.7461 45.3202 63.2821 46.3574 60.622C47.5409 57.5111 47.9359 53.7799 47.9359 52.2887V25.4598C48.0945 25.555 50.2076 26.9526 50.2076 26.9526C50.2076 26.9526 53.2518 28.9039 58.0015 30.1746C61.409 31.0788 66 31.2692 66 31.2692V18.2862C64.3914 18.4607 61.125 17.9531 57.781 16.2858V16.2858Z" fill="white"/>
</svg>
