<svg width="681" height="294" viewBox="0 0 681 294" fill="none" xmlns="http://www.w3.org/2000/svg">
<g clip-path="url(#clip0_3778_48212)">
<mask id="mask0_3778_48212" style="mask-type:luminance" maskUnits="userSpaceOnUse" x="0" y="0" width="681" height="294">
<path d="M681 0H0V294H681V0Z" fill="white"/>
</mask>
<g mask="url(#mask0_3778_48212)">
<path d="M226.578 61.7499L157.22 178.509V257.051C165.204 275.95 185.383 278.467 204.722 279.31V290.229H68.9404V279.31C88.278 278.467 111.819 275.531 118.124 262.933V181.869L47.5011 62.5881C35.3126 42.4279 23.5422 35.711 0 34.0291V23.11H118.125V34.0291C95.8439 35.2878 88.6989 39.4913 82.3942 44.5331L147.972 157.928L212.288 44.9495C205.563 39.9104 196.735 35.2878 174.456 34.0304V23.1114H275.343V34.0304C252.643 34.8714 238.35 42.4279 226.578 61.7499ZM364.459 294.009C341.761 294.009 330.83 278.468 329.989 267.551C315.695 282.67 297.202 294.009 279.546 294.009C256.846 294.009 237.507 280.148 237.507 256.213C237.507 244.449 240.45 232.268 246.337 222.611L329.989 192.37V161.289C329.989 142.391 321.161 124.33 302.244 124.33C290.895 124.33 279.965 138.187 279.126 159.61L241.289 165.907V161.711C253.9 123.907 295.519 109.21 315.694 109.21C353.948 109.21 367.82 129.368 367.401 160.448L366.141 248.647C365.72 265.868 374.967 270.067 383.376 270.067C390.1 270.067 396.826 265.868 404.815 257.89V270.067C395.568 280.99 379.175 294.009 364.459 294.009ZM280.387 225.55C278.705 232.268 277.445 238.148 277.445 247.39C277.445 259.988 284.591 272.586 298.462 272.586C311.073 272.586 318.219 268.391 329.57 259.569L329.989 202.866C319.061 207.906 292.159 219.67 280.387 225.55ZM408.6 290.229V280.567C427.515 279.309 432.977 275.109 436.345 267.965V50.4063C436.345 36.1261 434.241 30.2488 405.236 27.7272V19.3284L482.166 0.0078125L484.685 7.15199L472.497 22.2704V267.966C476.7 276.369 484.685 279.31 501.922 280.569V290.23H408.6V290.229ZM602.808 293.589C558.671 293.589 524.619 258.729 524.619 210.009C524.619 150.368 561.194 109.627 612.9 109.627C654.515 109.627 677.636 133.152 677.636 170.529V178.088L564.136 177.25C563.297 181.869 562.872 189.432 562.872 198.669C562.872 241.508 589.777 269.648 625.512 269.648C646.947 269.648 657.88 262.088 674.691 247.809L680.997 257.466C657.038 279.31 637.28 293.589 602.808 293.589ZM606.595 122.651C585.573 122.651 570.865 139.449 565.818 165.907L639.808 165.068C639.806 142.808 625.93 122.651 606.595 122.651Z" fill="#363636"/>
</g>
</g>
<defs>
<clipPath id="clip0_3778_48212">
<rect width="681" height="294" fill="white"/>
</clipPath>
</defs>
</svg>
