<svg width="66" height="50" viewBox="0 0 66 50" fill="none" xmlns="http://www.w3.org/2000/svg">
<g clip-path="url(#clip0_8_10)">
<path d="M65.5758 10.8811C65.5758 5.10624 61.3087 0.460702 56.0358 0.460702C48.8932 0.12833 41.6092 0 34.1653 0H31.8446C24.4187 0 17.1217 0.12833 9.97938 0.461987C4.71935 0.461987 0.452012 5.13317 0.452012 10.908C0.129707 15.4753 -0.00695138 20.0438 0.00078399 24.6124C-0.0121083 29.1809 0.134004 33.7538 0.43912 38.3308C0.43912 44.1056 4.70646 48.7898 9.96648 48.7898C17.4698 49.1361 25.1665 49.2901 32.992 49.2774C40.8305 49.3029 48.5056 49.1405 56.0177 48.7898C61.2907 48.7898 65.5578 44.1056 65.5578 38.3308C65.8671 33.7495 66.0092 29.1809 65.996 24.5996C66.0255 20.031 65.8852 15.4582 65.5758 10.8811ZM26.6878 37.2016V11.9847L45.3816 24.5867L26.6878 37.2016Z" fill="white"/>
</g>
<defs>
<clipPath id="clip0_8_10">
<rect width="66" height="49.28" fill="white"/>
</clipPath>
</defs>
</svg>
